solid ascii
  facet normal 0.000000e+00 1.000000e+00 0.000000e+00
    outer loop
      vertex   -6.750000e+01 4.500000e+01 2.000000e+00
      vertex   -6.750000e+01 4.500000e+01 0.000000e+00
      vertex   -7.000000e+01 4.500000e+01 2.000000e+00
    endloop
  endfacet
  facet normal 0.000000e+00 1.000000e+00 0.000000e+00
    outer loop
      vertex   -7.000000e+01 4.500000e+01 2.000000e+00
      vertex   -6.750000e+01 4.500000e+01 0.000000e+00
      vertex   -7.000000e+01 4.500000e+01 0.000000e+00
    endloop
  endfacet
  facet normal 1.000000e+00 0.000000e+00 -0.000000e+00
    outer loop
      vertex   -6.000000e+01 3.750000e+01 0.000000e+00
      vertex   -6.000000e+01 3.750000e+01 2.000000e+00
      vertex   -6.000000e+01 3.500000e+01 0.000000e+00
    endloop
  endfacet
  facet normal 1.000000e+00 0.000000e+00 -0.000000e+00
    outer loop
      vertex   -6.000000e+01 3.500000e+01 0.000000e+00
      vertex   -6.000000e+01 3.750000e+01 2.000000e+00
      vertex   -6.000000e+01 3.500000e+01 2.000000e+00
    endloop
  endfacet
  facet normal 1.000000e+00 -0.000000e+00 0.000000e+00
    outer loop
      vertex   -6.000000e+01 4.250000e+01 2.000000e+00
      vertex   -6.000000e+01 4.250000e+01 0.000000e+00
      vertex   -6.000000e+01 4.500000e+01 2.000000e+00
    endloop
  endfacet
  facet normal 1.000000e+00 -0.000000e+00 0.000000e+00
    outer loop
      vertex   -6.000000e+01 4.500000e+01 2.000000e+00
      vertex   -6.000000e+01 4.250000e+01 0.000000e+00
      vertex   -6.000000e+01 4.500000e+01 0.000000e+00
    endloop
  endfacet
  facet normal -0.000000e+00 -1.000000e+00 0.000000e+00
    outer loop
      vertex   -6.750000e+01 3.500000e+01 0.000000e+00
      vertex   -6.750000e+01 3.500000e+01 2.000000e+00
      vertex   -7.000000e+01 3.500000e+01 0.000000e+00
    endloop
  endfacet
  facet normal 0.000000e+00 -1.000000e+00 0.000000e+00
    outer loop
      vertex   -7.000000e+01 3.500000e+01 0.000000e+00
      vertex   -6.750000e+01 3.500000e+01 2.000000e+00
      vertex   -7.000000e+01 3.500000e+01 2.000000e+00
    endloop
  endfacet
  facet normal 0.000000e+00 -1.000000e+00 0.000000e+00
    outer loop
      vertex   -6.250000e+01 3.500000e+01 2.000000e+00
      vertex   -6.250000e+01 3.500000e+01 0.000000e+00
      vertex   -6.000000e+01 3.500000e+01 2.000000e+00
    endloop
  endfacet
  facet normal 0.000000e+00 -1.000000e+00 -0.000000e+00
    outer loop
      vertex   -6.000000e+01 3.500000e+01 2.000000e+00
      vertex   -6.250000e+01 3.500000e+01 0.000000e+00
      vertex   -6.000000e+01 3.500000e+01 0.000000e+00
    endloop
  endfacet
  facet normal -0.000000e+00 1.000000e+00 0.000000e+00
    outer loop
      vertex   -6.250000e+01 4.500000e+01 0.000000e+00
      vertex   -6.250000e+01 4.500000e+01 2.000000e+00
      vertex   -6.000000e+01 4.500000e+01 0.000000e+00
    endloop
  endfacet
  facet normal 0.000000e+00 1.000000e+00 -0.000000e+00
    outer loop
      vertex   -6.000000e+01 4.500000e+01 0.000000e+00
      vertex   -6.250000e+01 4.500000e+01 2.000000e+00
      vertex   -6.000000e+01 4.500000e+01 2.000000e+00
    endloop
  endfacet
  facet normal 1.000000e+00 0.000000e+00 -0.000000e+00
    outer loop
      vertex   -6.250000e+01 4.500000e+01 0.000000e+00
      vertex   -6.250000e+01 6.000000e+01 2.980232e-08
      vertex   -6.250000e+01 4.500000e+01 2.000000e+00
    endloop
  endfacet
  facet normal 1.000000e+00 -0.000000e+00 0.000000e+00
    outer loop
      vertex   -6.250000e+01 4.500000e+01 2.000000e+00
      vertex   -6.250000e+01 6.000000e+01 2.980232e-08
      vertex   -6.250000e+01 6.000000e+01 2.000000e+00
    endloop
  endfacet
  facet normal 0.000000e+00 -1.000000e+00 0.000000e+00
    outer loop
      vertex   -6.000000e+01 3.750000e+01 2.000000e+00
      vertex   -6.000000e+01 3.750000e+01 0.000000e+00
      vertex   -4.500000e+01 3.750000e+01 2.000000e+00
    endloop
  endfacet
  facet normal 0.000000e+00 -1.000000e+00 -0.000000e+00
    outer loop
      vertex   -4.500000e+01 3.750000e+01 2.000000e+00
      vertex   -6.000000e+01 3.750000e+01 0.000000e+00
      vertex   -4.500000e+01 3.750000e+01 0.000000e+00
    endloop
  endfacet
  facet normal 0.000000e+00 1.986821e-09 -1.000000e+00
    outer loop
      vertex   -6.750000e+01 6.000000e+01 2.980232e-08
      vertex   -6.250000e+01 6.000000e+01 2.980232e-08
      vertex   -6.750000e+01 4.500000e+01 0.000000e+00
    endloop
  endfacet
  facet normal 0.000000e+00 -0.000000e+00 -1.000000e+00
    outer loop
      vertex   -6.750000e+01 6.000000e+01 2.980232e-08
      vertex   -6.000000e+01 6.281136e+01 2.980232e-08
      vertex   -6.250000e+01 6.000000e+01 2.980232e-08
    endloop
  endfacet
  facet normal 0.000000e+00 0.000000e+00 -1.000000e+00
    outer loop
      vertex   -6.750000e+01 6.000000e+01 2.980232e-08
      vertex   -6.000000e+01 6.781136e+01 2.980232e-08
      vertex   -6.000000e+01 6.281136e+01 2.980232e-08
    endloop
  endfacet
  facet normal 2.462717e-09 -2.364553e-09 -1.000000e+00
    outer loop
      vertex   -6.750000e+01 6.000000e+01 2.980232e-08
      vertex   -7.000000e+01 7.000000e+01 0.000000e+00
      vertex   -6.000000e+01 6.781136e+01 2.980232e-08
    endloop
  endfacet
  facet normal 1.192093e-08 0.000000e+00 -1.000000e+00
    outer loop
      vertex   -6.750000e+01 6.000000e+01 2.980232e-08
      vertex   -7.000000e+01 6.000000e+01 0.000000e+00
      vertex   -7.000000e+01 7.000000e+01 0.000000e+00
    endloop
  endfacet
  facet normal 0.000000e+00 -1.361682e-08 -1.000000e+00
    outer loop
      vertex   -7.000000e+01 7.000000e+01 0.000000e+00
      vertex   -6.000000e+01 7.000000e+01 0.000000e+00
      vertex   -6.000000e+01 6.781136e+01 2.980232e-08
    endloop
  endfacet
  facet normal 0.000000e+00 -0.000000e+00 -1.000000e+00
    outer loop
      vertex   -6.000000e+01 6.781136e+01 2.980232e-08
      vertex   -4.500000e+01 6.781136e+01 2.980232e-08
      vertex   -6.000000e+01 6.281136e+01 2.980232e-08
    endloop
  endfacet
  facet normal 0.000000e+00 0.000000e+00 -1.000000e+00
    outer loop
      vertex   -6.000000e+01 6.281136e+01 2.980232e-08
      vertex   -4.500000e+01 6.781136e+01 2.980232e-08
      vertex   -4.500000e+01 6.281136e+01 2.980232e-08
    endloop
  endfacet
  facet normal 0.000000e+00 0.000000e+00 -1.000000e+00
    outer loop
      vertex   -4.500000e+01 6.281136e+01 2.980232e-08
      vertex   -4.500000e+01 6.781136e+01 2.980232e-08
      vertex   -3.500000e+01 6.781136e+01 2.980232e-08
    endloop
  endfacet
  facet normal 0.000000e+00 0.000000e+00 -1.000000e+00
    outer loop
      vertex   -4.250000e+01 6.000000e+01 2.980232e-08
      vertex   -3.500000e+01 6.781136e+01 2.980232e-08
      vertex   -3.500000e+01 6.281136e+01 2.980232e-08
    endloop
  endfacet
  facet normal -1.192093e-08 1.060068e-08 -1.000000e+00
    outer loop
      vertex   -3.750000e+01 6.000000e+01 2.980232e-08
      vertex   -3.500000e+01 6.281136e+01 2.980232e-08
      vertex   -3.500000e+01 6.000000e+01 0.000000e+00
    endloop
  endfacet
  facet normal 0.000000e+00 0.000000e+00 -1.000000e+00
    outer loop
      vertex   -3.750000e+01 6.000000e+01 2.980232e-08
      vertex   -4.250000e+01 6.000000e+01 2.980232e-08
      vertex   -3.500000e+01 6.281136e+01 2.980232e-08
    endloop
  endfacet
  facet normal 0.000000e+00 1.986821e-09 -1.000000e+00
    outer loop
      vertex   -3.750000e+01 6.000000e+01 2.980232e-08
      vertex   -4.250000e+01 4.500000e+01 0.000000e+00
      vertex   -4.250000e+01 6.000000e+01 2.980232e-08
    endloop
  endfacet
  facet normal 0.000000e+00 1.986821e-09 -1.000000e+00
    outer loop
      vertex   -3.750000e+01 6.000000e+01 2.980232e-08
      vertex   -3.750000e+01 4.500000e+01 0.000000e+00
      vertex   -4.250000e+01 4.500000e+01 0.000000e+00
    endloop
  endfacet
  facet normal 0.000000e+00 -0.000000e+00 -1.000000e+00
    outer loop
      vertex   -4.250000e+01 4.500000e+01 0.000000e+00
      vertex   -3.750000e+01 4.500000e+01 0.000000e+00
      vertex   -4.500000e+01 4.250000e+01 0.000000e+00
    endloop
  endfacet
  facet normal 0.000000e+00 -0.000000e+00 -1.000000e+00
    outer loop
      vertex   -4.500000e+01 4.500000e+01 0.000000e+00
      vertex   -4.250000e+01 4.500000e+01 0.000000e+00
      vertex   -4.500000e+01 4.250000e+01 0.000000e+00
    endloop
  endfacet
  facet normal 0.000000e+00 -1.361682e-08 -1.000000e+00
    outer loop
      vertex   -4.500000e+01 7.000000e+01 0.000000e+00
      vertex   -3.500000e+01 7.000000e+01 0.000000e+00
      vertex   -4.500000e+01 6.781136e+01 2.980232e-08
    endloop
  endfacet
  facet normal 0.000000e+00 -1.361682e-08 -1.000000e+00
    outer loop
      vertex   -4.500000e+01 6.781136e+01 2.980232e-08
      vertex   -3.500000e+01 7.000000e+01 0.000000e+00
      vertex   -3.500000e+01 6.781136e+01 2.980232e-08
    endloop
  endfacet
  facet normal 0.000000e+00 -0.000000e+00 -1.000000e+00
    outer loop
      vertex   -3.500000e+01 6.781136e+01 2.980232e-08
      vertex   -2.000000e+01 6.781136e+01 2.980232e-08
      vertex   -3.500000e+01 6.281136e+01 2.980232e-08
    endloop
  endfacet
  facet normal 0.000000e+00 0.000000e+00 -1.000000e+00
    outer loop
      vertex   -3.500000e+01 6.281136e+01 2.980232e-08
      vertex   -2.000000e+01 6.781136e+01 2.980232e-08
      vertex   -2.000000e+01 6.281136e+01 2.980232e-08
    endloop
  endfacet
  facet normal 0.000000e+00 0.000000e+00 -1.000000e+00
    outer loop
      vertex   -2.000000e+01 6.281136e+01 2.980232e-08
      vertex   -2.000000e+01 6.781136e+01 2.980232e-08
      vertex   -1.250000e+01 6.000000e+01 2.980232e-08
    endloop
  endfacet
  facet normal 0.000000e+00 -0.000000e+00 -1.000000e+00
    outer loop
      vertex   -1.750000e+01 6.000000e+01 2.980232e-08
      vertex   -1.250000e+01 6.000000e+01 2.980232e-08
      vertex   -1.750000e+01 4.500000e+01 2.980232e-08
    endloop
  endfacet
  facet normal 0.000000e+00 0.000000e+00 -1.000000e+00
    outer loop
      vertex   -1.750000e+01 6.000000e+01 2.980232e-08
      vertex   -2.000000e+01 6.281136e+01 2.980232e-08
      vertex   -1.250000e+01 6.000000e+01 2.980232e-08
    endloop
  endfacet
  facet normal 1.192093e-08 1.060068e-08 -1.000000e+00
    outer loop
      vertex   -1.750000e+01 6.000000e+01 2.980232e-08
      vertex   -2.000000e+01 6.000000e+01 0.000000e+00
      vertex   -2.000000e+01 6.281136e+01 2.980232e-08
    endloop
  endfacet
  facet normal 0.000000e+00 -1.361682e-08 -1.000000e+00
    outer loop
      vertex   -2.000000e+01 7.000000e+01 0.000000e+00
      vertex   -1.000000e+01 7.000000e+01 0.000000e+00
      vertex   -2.000000e+01 6.781136e+01 2.980232e-08
    endloop
  endfacet
  facet normal -2.462717e-09 -2.364553e-09 -1.000000e+00
    outer loop
      vertex   -2.000000e+01 6.781136e+01 2.980232e-08
      vertex   -1.000000e+01 7.000000e+01 0.000000e+00
      vertex   -1.250000e+01 6.000000e+01 2.980232e-08
    endloop
  endfacet
  facet normal -1.192093e-08 -0.000000e+00 -1.000000e+00
    outer loop
      vertex   -1.250000e+01 6.000000e+01 2.980232e-08
      vertex   -1.000000e+01 7.000000e+01 0.000000e+00
      vertex   -1.000000e+01 6.000000e+01 0.000000e+00
    endloop
  endfacet
  facet normal -0.000000e+00 -0.000000e+00 -1.000000e+00
    outer loop
      vertex   -1.250000e+01 6.000000e+01 2.980232e-08
      vertex   -1.250000e+01 4.500000e+01 2.980232e-08
      vertex   -1.750000e+01 4.500000e+01 2.980232e-08
    endloop
  endfacet
  facet normal 0.000000e+00 0.000000e+00 -1.000000e+00
    outer loop
      vertex   -1.750000e+01 4.500000e+01 2.980232e-08
      vertex   -1.250000e+01 4.500000e+01 2.980232e-08
      vertex   -1.250000e+01 3.500000e+01 2.980232e-08
    endloop
  endfacet
  facet normal 3.973643e-09 0.000000e+00 -1.000000e+00
    outer loop
      vertex   -2.000000e+01 4.250000e+01 0.000000e+00
      vertex   -1.250000e+01 3.500000e+01 2.980232e-08
      vertex   -2.000000e+01 3.750000e+01 0.000000e+00
    endloop
  endfacet
  facet normal 0.000000e+00 0.000000e+00 -1.000000e+00
    outer loop
      vertex   -3.500000e+01 3.750000e+01 0.000000e+00
      vertex   -2.000000e+01 4.250000e+01 0.000000e+00
      vertex   -2.000000e+01 3.750000e+01 0.000000e+00
    endloop
  endfacet
  facet normal 0.000000e+00 0.000000e+00 -1.000000e+00
    outer loop
      vertex   -3.500000e+01 3.750000e+01 0.000000e+00
      vertex   -3.500000e+01 4.250000e+01 0.000000e+00
      vertex   -2.000000e+01 4.250000e+01 0.000000e+00
    endloop
  endfacet
  facet normal -0.000000e+00 0.000000e+00 -1.000000e+00
    outer loop
      vertex   -3.500000e+01 3.750000e+01 0.000000e+00
      vertex   -4.250000e+01 3.500000e+01 0.000000e+00
      vertex   -3.500000e+01 4.250000e+01 0.000000e+00
    endloop
  endfacet
  facet normal -0.000000e+00 0.000000e+00 -1.000000e+00
    outer loop
      vertex   -3.500000e+01 3.750000e+01 0.000000e+00
      vertex   -3.750000e+01 3.500000e+01 0.000000e+00
      vertex   -4.250000e+01 3.500000e+01 0.000000e+00
    endloop
  endfacet
  facet normal -0.000000e+00 -0.000000e+00 -1.000000e+00
    outer loop
      vertex   -3.500000e+01 3.750000e+01 0.000000e+00
      vertex   -3.500000e+01 3.500000e+01 0.000000e+00
      vertex   -3.750000e+01 3.500000e+01 0.000000e+00
    endloop
  endfacet
  facet normal -1.192093e-08 -0.000000e+00 -1.000000e+00
    outer loop
      vertex   -1.000000e+01 4.500000e+01 0.000000e+00
      vertex   -1.000000e+01 3.500000e+01 0.000000e+00
      vertex   -1.250000e+01 4.500000e+01 2.980232e-08
    endloop
  endfacet
  facet normal -1.192093e-08 0.000000e+00 -1.000000e+00
    outer loop
      vertex   -1.250000e+01 4.500000e+01 2.980232e-08
      vertex   -1.000000e+01 3.500000e+01 0.000000e+00
      vertex   -1.250000e+01 3.500000e+01 2.980232e-08
    endloop
  endfacet
  facet normal 0.000000e+00 0.000000e+00 -1.000000e+00
    outer loop
      vertex   -1.250000e+01 2.000000e+01 2.980232e-08
      vertex   -1.750000e+01 2.000000e+01 2.980232e-08
      vertex   -1.250000e+01 3.500000e+01 2.980232e-08
    endloop
  endfacet
  facet normal 0.000000e+00 2.980232e-09 -1.000000e+00
    outer loop
      vertex   -1.250000e+01 2.000000e+01 2.980232e-08
      vertex   -1.000000e+01 1.000000e+01 0.000000e+00
      vertex   -1.750000e+01 2.000000e+01 2.980232e-08
    endloop
  endfacet
  facet normal -1.192093e-08 -0.000000e+00 -1.000000e+00
    outer loop
      vertex   -1.250000e+01 2.000000e+01 2.980232e-08
      vertex   -1.000000e+01 2.000000e+01 0.000000e+00
      vertex   -1.000000e+01 1.000000e+01 0.000000e+00
    endloop
  endfacet
  facet normal 0.000000e+00 0.000000e+00 -1.000000e+00
    outer loop
      vertex   -2.000000e+01 1.000000e+01 0.000000e+00
      vertex   -2.000000e+01 1.250000e+01 0.000000e+00
      vertex   -1.000000e+01 1.000000e+01 0.000000e+00
    endloop
  endfacet
  facet normal 0.000000e+00 0.000000e+00 -1.000000e+00
    outer loop
      vertex   -1.000000e+01 1.000000e+01 0.000000e+00
      vertex   -2.000000e+01 1.250000e+01 0.000000e+00
      vertex   -2.000000e+01 1.750000e+01 0.000000e+00
    endloop
  endfacet
  facet normal 1.192093e-08 0.000000e+00 -1.000000e+00
    outer loop
      vertex   -1.750000e+01 2.000000e+01 2.980232e-08
      vertex   -2.000000e+01 1.750000e+01 0.000000e+00
      vertex   -2.000000e+01 2.000000e+01 0.000000e+00
    endloop
  endfacet
  facet normal 5.108970e-09 6.811959e-09 -1.000000e+00
    outer loop
      vertex   -1.750000e+01 2.000000e+01 2.980232e-08
      vertex   -1.000000e+01 1.000000e+01 0.000000e+00
      vertex   -2.000000e+01 1.750000e+01 0.000000e+00
    endloop
  endfacet
  facet normal 0.000000e+00 0.000000e+00 -1.000000e+00
    outer loop
      vertex   -2.000000e+01 1.250000e+01 0.000000e+00
      vertex   -3.500000e+01 1.250000e+01 0.000000e+00
      vertex   -2.000000e+01 1.750000e+01 0.000000e+00
    endloop
  endfacet
  facet normal -0.000000e+00 0.000000e+00 -1.000000e+00
    outer loop
      vertex   -2.000000e+01 1.750000e+01 0.000000e+00
      vertex   -3.500000e+01 1.250000e+01 0.000000e+00
      vertex   -3.500000e+01 1.750000e+01 0.000000e+00
    endloop
  endfacet
  facet normal -0.000000e+00 -0.000000e+00 -1.000000e+00
    outer loop
      vertex   -3.500000e+01 1.750000e+01 0.000000e+00
      vertex   -3.500000e+01 1.250000e+01 0.000000e+00
      vertex   -4.500000e+01 1.250000e+01 0.000000e+00
    endloop
  endfacet
  facet normal -0.000000e+00 0.000000e+00 -1.000000e+00
    outer loop
      vertex   -3.750000e+01 2.000000e+01 0.000000e+00
      vertex   -4.500000e+01 1.250000e+01 0.000000e+00
      vertex   -4.500000e+01 1.750000e+01 0.000000e+00
    endloop
  endfacet
  facet normal -0.000000e+00 0.000000e+00 -1.000000e+00
    outer loop
      vertex   -4.250000e+01 2.000000e+01 0.000000e+00
      vertex   -4.500000e+01 1.750000e+01 0.000000e+00
      vertex   -4.500000e+01 2.000000e+01 0.000000e+00
    endloop
  endfacet
  facet normal 0.000000e+00 -0.000000e+00 -1.000000e+00
    outer loop
      vertex   -4.250000e+01 2.000000e+01 0.000000e+00
      vertex   -3.750000e+01 2.000000e+01 0.000000e+00
      vertex   -4.500000e+01 1.750000e+01 0.000000e+00
    endloop
  endfacet
  facet normal 0.000000e+00 0.000000e+00 -1.000000e+00
    outer loop
      vertex   -4.250000e+01 2.000000e+01 0.000000e+00
      vertex   -3.750000e+01 3.500000e+01 0.000000e+00
      vertex   -3.750000e+01 2.000000e+01 0.000000e+00
    endloop
  endfacet
  facet normal 0.000000e+00 0.000000e+00 -1.000000e+00
    outer loop
      vertex   -4.250000e+01 2.000000e+01 0.000000e+00
      vertex   -4.250000e+01 3.500000e+01 0.000000e+00
      vertex   -3.750000e+01 3.500000e+01 0.000000e+00
    endloop
  endfacet
  facet normal 0.000000e+00 0.000000e+00 -1.000000e+00
    outer loop
      vertex   -3.500000e+01 1.000000e+01 0.000000e+00
      vertex   -4.500000e+01 1.000000e+01 0.000000e+00
      vertex   -3.500000e+01 1.250000e+01 0.000000e+00
    endloop
  endfacet
  facet normal -0.000000e+00 0.000000e+00 -1.000000e+00
    outer loop
      vertex   -3.500000e+01 1.250000e+01 0.000000e+00
      vertex   -4.500000e+01 1.000000e+01 0.000000e+00
      vertex   -4.500000e+01 1.250000e+01 0.000000e+00
    endloop
  endfacet
  facet normal 0.000000e+00 0.000000e+00 -1.000000e+00
    outer loop
      vertex   -4.500000e+01 1.250000e+01 0.000000e+00
      vertex   -6.000000e+01 1.250000e+01 0.000000e+00
      vertex   -4.500000e+01 1.750000e+01 0.000000e+00
    endloop
  endfacet
  facet normal -0.000000e+00 0.000000e+00 -1.000000e+00
    outer loop
      vertex   -4.500000e+01 1.750000e+01 0.000000e+00
      vertex   -6.000000e+01 1.250000e+01 0.000000e+00
      vertex   -6.000000e+01 1.750000e+01 0.000000e+00
    endloop
  endfacet
  facet normal 0.000000e+00 -0.000000e+00 -1.000000e+00
    outer loop
      vertex   -6.000000e+01 1.750000e+01 0.000000e+00
      vertex   -6.000000e+01 1.250000e+01 0.000000e+00
      vertex   -7.000000e+01 1.000000e+01 0.000000e+00
    endloop
  endfacet
  facet normal 0.000000e+00 2.980232e-09 -1.000000e+00
    outer loop
      vertex   -6.250000e+01 2.000000e+01 2.980232e-08
      vertex   -7.000000e+01 1.000000e+01 0.000000e+00
      vertex   -6.750000e+01 2.000000e+01 2.980232e-08
    endloop
  endfacet
  facet normal 0.000000e+00 -1.986821e-09 -1.000000e+00
    outer loop
      vertex   -6.250000e+01 3.500000e+01 0.000000e+00
      vertex   -6.750000e+01 2.000000e+01 2.980232e-08
      vertex   -6.750000e+01 3.500000e+01 0.000000e+00
    endloop
  endfacet
  facet normal -0.000000e+00 0.000000e+00 -1.000000e+00
    outer loop
      vertex   -6.000000e+01 3.750000e+01 0.000000e+00
      vertex   -6.750000e+01 3.500000e+01 0.000000e+00
      vertex   -6.000000e+01 4.250000e+01 0.000000e+00
    endloop
  endfacet
  facet normal -0.000000e+00 0.000000e+00 -1.000000e+00
    outer loop
      vertex   -4.500000e+01 4.250000e+01 0.000000e+00
      vertex   -6.000000e+01 3.750000e+01 0.000000e+00
      vertex   -6.000000e+01 4.250000e+01 0.000000e+00
    endloop
  endfacet
  facet normal -0.000000e+00 -0.000000e+00 -1.000000e+00
    outer loop
      vertex   -4.500000e+01 4.250000e+01 0.000000e+00
      vertex   -4.500000e+01 3.750000e+01 0.000000e+00
      vertex   -6.000000e+01 3.750000e+01 0.000000e+00
    endloop
  endfacet
  facet normal 0.000000e+00 -0.000000e+00 -1.000000e+00
    outer loop
      vertex   -4.500000e+01 4.250000e+01 0.000000e+00
      vertex   -3.750000e+01 4.500000e+01 0.000000e+00
      vertex   -4.500000e+01 3.750000e+01 0.000000e+00
    endloop
  endfacet
  facet normal 0.000000e+00 0.000000e+00 -1.000000e+00
    outer loop
      vertex   -4.500000e+01 3.750000e+01 0.000000e+00
      vertex   -3.750000e+01 4.500000e+01 0.000000e+00
      vertex   -3.500000e+01 4.250000e+01 0.000000e+00
    endloop
  endfacet
  facet normal 0.000000e+00 0.000000e+00 -1.000000e+00
    outer loop
      vertex   -4.250000e+01 3.500000e+01 0.000000e+00
      vertex   -4.500000e+01 3.750000e+01 0.000000e+00
      vertex   -3.500000e+01 4.250000e+01 0.000000e+00
    endloop
  endfacet
  facet normal 0.000000e+00 0.000000e+00 -1.000000e+00
    outer loop
      vertex   -4.250000e+01 3.500000e+01 0.000000e+00
      vertex   -4.500000e+01 3.500000e+01 0.000000e+00
      vertex   -4.500000e+01 3.750000e+01 0.000000e+00
    endloop
  endfacet
  facet normal -0.000000e+00 -0.000000e+00 -1.000000e+00
    outer loop
      vertex   -6.000000e+01 1.250000e+01 0.000000e+00
      vertex   -6.000000e+01 1.000000e+01 0.000000e+00
      vertex   -7.000000e+01 1.000000e+01 0.000000e+00
    endloop
  endfacet
  facet normal 1.192093e-08 0.000000e+00 -1.000000e+00
    outer loop
      vertex   -7.000000e+01 1.000000e+01 0.000000e+00
      vertex   -7.000000e+01 2.000000e+01 0.000000e+00
      vertex   -6.750000e+01 2.000000e+01 2.980232e-08
    endloop
  endfacet
  facet normal -0.000000e+00 -1.986821e-09 -1.000000e+00
    outer loop
      vertex   -6.250000e+01 2.000000e+01 2.980232e-08
      vertex   -6.750000e+01 2.000000e+01 2.980232e-08
      vertex   -6.250000e+01 3.500000e+01 0.000000e+00
    endloop
  endfacet
  facet normal 0.000000e+00 0.000000e+00 -1.000000e+00
    outer loop
      vertex   -7.000000e+01 3.500000e+01 0.000000e+00
      vertex   -6.750000e+01 4.500000e+01 0.000000e+00
      vertex   -6.750000e+01 3.500000e+01 0.000000e+00
    endloop
  endfacet
  facet normal 0.000000e+00 0.000000e+00 -1.000000e+00
    outer loop
      vertex   -7.000000e+01 3.500000e+01 0.000000e+00
      vertex   -7.000000e+01 4.500000e+01 0.000000e+00
      vertex   -6.750000e+01 4.500000e+01 0.000000e+00
    endloop
  endfacet
  facet normal -0.000000e+00 -0.000000e+00 -1.000000e+00
    outer loop
      vertex   -6.000000e+01 4.500000e+01 0.000000e+00
      vertex   -6.000000e+01 4.250000e+01 0.000000e+00
      vertex   -6.250000e+01 4.500000e+01 0.000000e+00
    endloop
  endfacet
  facet normal 0.000000e+00 -0.000000e+00 -1.000000e+00
    outer loop
      vertex   -6.250000e+01 4.500000e+01 0.000000e+00
      vertex   -6.000000e+01 4.250000e+01 0.000000e+00
      vertex   -6.750000e+01 3.500000e+01 0.000000e+00
    endloop
  endfacet
  facet normal 0.000000e+00 -0.000000e+00 -1.000000e+00
    outer loop
      vertex   -6.750000e+01 4.500000e+01 0.000000e+00
      vertex   -6.250000e+01 4.500000e+01 0.000000e+00
      vertex   -6.750000e+01 3.500000e+01 0.000000e+00
    endloop
  endfacet
  facet normal 0.000000e+00 1.986821e-09 -1.000000e+00
    outer loop
      vertex   -6.750000e+01 4.500000e+01 0.000000e+00
      vertex   -6.250000e+01 6.000000e+01 2.980232e-08
      vertex   -6.250000e+01 4.500000e+01 0.000000e+00
    endloop
  endfacet
  facet normal 1.192093e-08 1.060068e-08 -1.000000e+00
    outer loop
      vertex   -4.500000e+01 6.000000e+01 0.000000e+00
      vertex   -4.500000e+01 6.281136e+01 2.980232e-08
      vertex   -4.250000e+01 6.000000e+01 2.980232e-08
    endloop
  endfacet
  facet normal 0.000000e+00 0.000000e+00 -1.000000e+00
    outer loop
      vertex   -4.250000e+01 6.000000e+01 2.980232e-08
      vertex   -4.500000e+01 6.281136e+01 2.980232e-08
      vertex   -3.500000e+01 6.781136e+01 2.980232e-08
    endloop
  endfacet
  facet normal -1.192093e-08 1.060068e-08 -1.000000e+00
    outer loop
      vertex   -6.000000e+01 6.281136e+01 2.980232e-08
      vertex   -6.000000e+01 6.000000e+01 0.000000e+00
      vertex   -6.250000e+01 6.000000e+01 2.980232e-08
    endloop
  endfacet
  facet normal 0.000000e+00 0.000000e+00 -1.000000e+00
    outer loop
      vertex   -3.750000e+01 4.500000e+01 0.000000e+00
      vertex   -3.500000e+01 4.500000e+01 0.000000e+00
      vertex   -3.500000e+01 4.250000e+01 0.000000e+00
    endloop
  endfacet
  facet normal 1.192093e-08 0.000000e+00 -1.000000e+00
    outer loop
      vertex   -2.000000e+01 4.500000e+01 0.000000e+00
      vertex   -1.750000e+01 4.500000e+01 2.980232e-08
      vertex   -2.000000e+01 4.250000e+01 0.000000e+00
    endloop
  endfacet
  facet normal 7.947286e-09 3.973643e-09 -1.000000e+00
    outer loop
      vertex   -2.000000e+01 4.250000e+01 0.000000e+00
      vertex   -1.750000e+01 4.500000e+01 2.980232e-08
      vertex   -1.250000e+01 3.500000e+01 2.980232e-08
    endloop
  endfacet
  facet normal 0.000000e+00 0.000000e+00 -1.000000e+00
    outer loop
      vertex   -1.750000e+01 2.000000e+01 2.980232e-08
      vertex   -1.750000e+01 3.500000e+01 2.980232e-08
      vertex   -1.250000e+01 3.500000e+01 2.980232e-08
    endloop
  endfacet
  facet normal -0.000000e+00 -1.192093e-08 -1.000000e+00
    outer loop
      vertex   -1.250000e+01 3.500000e+01 2.980232e-08
      vertex   -1.750000e+01 3.500000e+01 2.980232e-08
      vertex   -2.000000e+01 3.750000e+01 0.000000e+00
    endloop
  endfacet
  facet normal 1.192093e-08 0.000000e+00 -1.000000e+00
    outer loop
      vertex   -2.000000e+01 3.750000e+01 0.000000e+00
      vertex   -1.750000e+01 3.500000e+01 2.980232e-08
      vertex   -2.000000e+01 3.500000e+01 0.000000e+00
    endloop
  endfacet
  facet normal -0.000000e+00 -0.000000e+00 -1.000000e+00
    outer loop
      vertex   -3.500000e+01 2.000000e+01 0.000000e+00
      vertex   -3.500000e+01 1.750000e+01 0.000000e+00
      vertex   -3.750000e+01 2.000000e+01 0.000000e+00
    endloop
  endfacet
  facet normal 0.000000e+00 -0.000000e+00 -1.000000e+00
    outer loop
      vertex   -3.750000e+01 2.000000e+01 0.000000e+00
      vertex   -3.500000e+01 1.750000e+01 0.000000e+00
      vertex   -4.500000e+01 1.250000e+01 0.000000e+00
    endloop
  endfacet
  facet normal 0.000000e+00 0.000000e+00 -1.000000e+00
    outer loop
      vertex   -6.000000e+01 3.500000e+01 0.000000e+00
      vertex   -6.250000e+01 3.500000e+01 0.000000e+00
      vertex   -6.000000e+01 3.750000e+01 0.000000e+00
    endloop
  endfacet
  facet normal -0.000000e+00 0.000000e+00 -1.000000e+00
    outer loop
      vertex   -6.000000e+01 3.750000e+01 0.000000e+00
      vertex   -6.250000e+01 3.500000e+01 0.000000e+00
      vertex   -6.750000e+01 3.500000e+01 0.000000e+00
    endloop
  endfacet
  facet normal -1.192093e-08 -0.000000e+00 -1.000000e+00
    outer loop
      vertex   -6.000000e+01 2.000000e+01 0.000000e+00
      vertex   -6.000000e+01 1.750000e+01 0.000000e+00
      vertex   -6.250000e+01 2.000000e+01 2.980232e-08
    endloop
  endfacet
  facet normal -5.108970e-09 6.811959e-09 -1.000000e+00
    outer loop
      vertex   -6.250000e+01 2.000000e+01 2.980232e-08
      vertex   -6.000000e+01 1.750000e+01 0.000000e+00
      vertex   -7.000000e+01 1.000000e+01 0.000000e+00
    endloop
  endfacet
  facet normal -1.000000e+00 0.000000e+00 0.000000e+00
    outer loop
      vertex   -6.750000e+01 3.500000e+01 0.000000e+00
      vertex   -6.750000e+01 2.000000e+01 2.980232e-08
      vertex   -6.750000e+01 3.500000e+01 2.000000e+00
    endloop
  endfacet
  facet normal -1.000000e+00 -0.000000e+00 0.000000e+00
    outer loop
      vertex   -6.750000e+01 3.500000e+01 2.000000e+00
      vertex   -6.750000e+01 2.000000e+01 2.980232e-08
      vertex   -6.750000e+01 2.000000e+01 2.000000e+00
    endloop
  endfacet
  facet normal -0.000000e+00 -1.000000e+00 0.000000e+00
    outer loop
      vertex   -2.000000e+01 6.281136e+01 2.980232e-08
      vertex   -2.000000e+01 6.281136e+01 2.000000e+00
      vertex   -3.500000e+01 6.281136e+01 2.980232e-08
    endloop
  endfacet
  facet normal 0.000000e+00 -1.000000e+00 0.000000e+00
    outer loop
      vertex   -3.500000e+01 6.281136e+01 2.980232e-08
      vertex   -2.000000e+01 6.281136e+01 2.000000e+00
      vertex   -3.500000e+01 6.281136e+01 2.000000e+00
    endloop
  endfacet
  facet normal 0.000000e+00 -1.000000e+00 0.000000e+00
    outer loop
      vertex   -6.000000e+01 6.281136e+01 2.000000e+00
      vertex   -6.000000e+01 6.281136e+01 2.980232e-08
      vertex   -4.500000e+01 6.281136e+01 2.000000e+00
    endloop
  endfacet
  facet normal 0.000000e+00 -1.000000e+00 -0.000000e+00
    outer loop
      vertex   -4.500000e+01 6.281136e+01 2.000000e+00
      vertex   -6.000000e+01 6.281136e+01 2.980232e-08
      vertex   -4.500000e+01 6.281136e+01 2.980232e-08
    endloop
  endfacet
  facet normal 0.000000e+00 1.000000e+00 0.000000e+00
    outer loop
      vertex   -2.000000e+01 6.781136e+01 2.000000e+00
      vertex   -2.000000e+01 6.781136e+01 2.980232e-08
      vertex   -3.500000e+01 6.781136e+01 2.000000e+00
    endloop
  endfacet
  facet normal 0.000000e+00 1.000000e+00 0.000000e+00
    outer loop
      vertex   -3.500000e+01 6.781136e+01 2.000000e+00
      vertex   -2.000000e+01 6.781136e+01 2.980232e-08
      vertex   -3.500000e+01 6.781136e+01 2.980232e-08
    endloop
  endfacet
  facet normal -0.000000e+00 1.000000e+00 0.000000e+00
    outer loop
      vertex   -6.000000e+01 6.781136e+01 2.980232e-08
      vertex   -6.000000e+01 6.781136e+01 2.000000e+00
      vertex   -4.500000e+01 6.781136e+01 2.980232e-08
    endloop
  endfacet
  facet normal 0.000000e+00 1.000000e+00 -0.000000e+00
    outer loop
      vertex   -4.500000e+01 6.781136e+01 2.980232e-08
      vertex   -6.000000e+01 6.781136e+01 2.000000e+00
      vertex   -4.500000e+01 6.781136e+01 2.000000e+00
    endloop
  endfacet
  facet normal -1.000000e+00 0.000000e+00 0.000000e+00
    outer loop
      vertex   -7.000000e+01 6.000000e+01 0.000000e+00
      vertex   -7.000000e+01 6.000000e+01 2.000000e+00
      vertex   -7.000000e+01 7.000000e+01 0.000000e+00
    endloop
  endfacet
  facet normal -1.000000e+00 0.000000e+00 0.000000e+00
    outer loop
      vertex   -7.000000e+01 7.000000e+01 0.000000e+00
      vertex   -7.000000e+01 6.000000e+01 2.000000e+00
      vertex   -7.000000e+01 7.000000e+01 2.000000e+00
    endloop
  endfacet
  facet normal 1.000000e+00 0.000000e+00 0.000000e+00
    outer loop
      vertex   -6.000000e+01 6.281136e+01 2.000000e+00
      vertex   -6.000000e+01 6.000000e+01 2.000000e+00
      vertex   -6.000000e+01 6.281136e+01 2.980232e-08
    endloop
  endfacet
  facet normal 1.000000e+00 0.000000e+00 0.000000e+00
    outer loop
      vertex   -6.000000e+01 6.281136e+01 2.980232e-08
      vertex   -6.000000e+01 6.000000e+01 2.000000e+00
      vertex   -6.000000e+01 6.000000e+01 0.000000e+00
    endloop
  endfacet
  facet normal 1.000000e+00 -0.000000e+00 0.000000e+00
    outer loop
      vertex   -6.000000e+01 6.781136e+01 2.000000e+00
      vertex   -6.000000e+01 6.781136e+01 2.980232e-08
      vertex   -6.000000e+01 7.000000e+01 2.000000e+00
    endloop
  endfacet
  facet normal 1.000000e+00 0.000000e+00 0.000000e+00
    outer loop
      vertex   -6.000000e+01 7.000000e+01 2.000000e+00
      vertex   -6.000000e+01 6.781136e+01 2.980232e-08
      vertex   -6.000000e+01 7.000000e+01 0.000000e+00
    endloop
  endfacet
  facet normal -1.000000e+00 -0.000000e+00 -0.000000e+00
    outer loop
      vertex   -2.000000e+01 6.281136e+01 2.000000e+00
      vertex   -2.000000e+01 6.281136e+01 2.980232e-08
      vertex   -2.000000e+01 6.000000e+01 2.000000e+00
    endloop
  endfacet
  facet normal -1.000000e+00 0.000000e+00 -0.000000e+00
    outer loop
      vertex   -2.000000e+01 6.000000e+01 2.000000e+00
      vertex   -2.000000e+01 6.281136e+01 2.980232e-08
      vertex   -2.000000e+01 6.000000e+01 0.000000e+00
    endloop
  endfacet
  facet normal 1.000000e+00 0.000000e+00 -0.000000e+00
    outer loop
      vertex   -1.000000e+01 7.000000e+01 0.000000e+00
      vertex   -1.000000e+01 7.000000e+01 2.000000e+00
      vertex   -1.000000e+01 6.000000e+01 0.000000e+00
    endloop
  endfacet
  facet normal 1.000000e+00 0.000000e+00 -0.000000e+00
    outer loop
      vertex   -1.000000e+01 6.000000e+01 0.000000e+00
      vertex   -1.000000e+01 7.000000e+01 2.000000e+00
      vertex   -1.000000e+01 6.000000e+01 2.000000e+00
    endloop
  endfacet
  facet normal 0.000000e+00 -1.986821e-09 1.000000e+00
    outer loop
      vertex   -6.250000e+01 6.000000e+01 2.000000e+00
      vertex   -6.750000e+01 6.000000e+01 2.000000e+00
      vertex   -6.250000e+01 4.500000e+01 2.000000e+00
    endloop
  endfacet
  facet normal 0.000000e+00 -0.000000e+00 1.000000e+00
    outer loop
      vertex   -6.250000e+01 6.000000e+01 2.000000e+00
      vertex   -6.000000e+01 6.281136e+01 2.000000e+00
      vertex   -6.750000e+01 6.000000e+01 2.000000e+00
    endloop
  endfacet
  facet normal 1.192093e-08 -1.060068e-08 1.000000e+00
    outer loop
      vertex   -6.250000e+01 6.000000e+01 2.000000e+00
      vertex   -6.000000e+01 6.000000e+01 2.000000e+00
      vertex   -6.000000e+01 6.281136e+01 2.000000e+00
    endloop
  endfacet
  facet normal 0.000000e+00 0.000000e+00 1.000000e+00
    outer loop
      vertex   -6.750000e+01 6.000000e+01 2.000000e+00
      vertex   -6.000000e+01 6.281136e+01 2.000000e+00
      vertex   -6.000000e+01 6.781136e+01 2.000000e+00
    endloop
  endfacet
  facet normal 0.000000e+00 1.361682e-08 1.000000e+00
    outer loop
      vertex   -7.000000e+01 7.000000e+01 2.000000e+00
      vertex   -6.000000e+01 6.781136e+01 2.000000e+00
      vertex   -6.000000e+01 7.000000e+01 2.000000e+00
    endloop
  endfacet
  facet normal -2.462717e-09 2.364553e-09 1.000000e+00
    outer loop
      vertex   -7.000000e+01 7.000000e+01 2.000000e+00
      vertex   -6.750000e+01 6.000000e+01 2.000000e+00
      vertex   -6.000000e+01 6.781136e+01 2.000000e+00
    endloop
  endfacet
  facet normal -1.192093e-08 0.000000e+00 1.000000e+00
    outer loop
      vertex   -7.000000e+01 7.000000e+01 2.000000e+00
      vertex   -7.000000e+01 6.000000e+01 2.000000e+00
      vertex   -6.750000e+01 6.000000e+01 2.000000e+00
    endloop
  endfacet
  facet normal -1.192093e-08 -1.060068e-08 1.000000e+00
    outer loop
      vertex   -4.500000e+01 6.000000e+01 2.000000e+00
      vertex   -4.250000e+01 6.000000e+01 2.000000e+00
      vertex   -4.500000e+01 6.281136e+01 2.000000e+00
    endloop
  endfacet
  facet normal -0.000000e+00 0.000000e+00 1.000000e+00
    outer loop
      vertex   -4.500000e+01 6.281136e+01 2.000000e+00
      vertex   -4.250000e+01 6.000000e+01 2.000000e+00
      vertex   -3.750000e+01 6.000000e+01 2.000000e+00
    endloop
  endfacet
  facet normal -0.000000e+00 0.000000e+00 1.000000e+00
    outer loop
      vertex   -4.500000e+01 6.781136e+01 2.000000e+00
      vertex   -3.750000e+01 6.000000e+01 2.000000e+00
      vertex   -3.500000e+01 6.281136e+01 2.000000e+00
    endloop
  endfacet
  facet normal -0.000000e+00 0.000000e+00 1.000000e+00
    outer loop
      vertex   -3.500000e+01 6.781136e+01 2.000000e+00
      vertex   -3.500000e+01 6.281136e+01 2.000000e+00
      vertex   -2.000000e+01 6.281136e+01 2.000000e+00
    endloop
  endfacet
  facet normal 0.000000e+00 0.000000e+00 1.000000e+00
    outer loop
      vertex   -2.000000e+01 6.781136e+01 2.000000e+00
      vertex   -2.000000e+01 6.281136e+01 2.000000e+00
      vertex   -1.250000e+01 6.000000e+01 2.000000e+00
    endloop
  endfacet
  facet normal 1.192093e-08 0.000000e+00 1.000000e+00
    outer loop
      vertex   -1.000000e+01 7.000000e+01 2.000000e+00
      vertex   -1.250000e+01 6.000000e+01 2.000000e+00
      vertex   -1.000000e+01 6.000000e+01 2.000000e+00
    endloop
  endfacet
  facet normal 2.462717e-09 2.364553e-09 1.000000e+00
    outer loop
      vertex   -1.000000e+01 7.000000e+01 2.000000e+00
      vertex   -2.000000e+01 6.781136e+01 2.000000e+00
      vertex   -1.250000e+01 6.000000e+01 2.000000e+00
    endloop
  endfacet
  facet normal 0.000000e+00 1.361682e-08 1.000000e+00
    outer loop
      vertex   -1.000000e+01 7.000000e+01 2.000000e+00
      vertex   -2.000000e+01 7.000000e+01 2.000000e+00
      vertex   -2.000000e+01 6.781136e+01 2.000000e+00
    endloop
  endfacet
  facet normal 0.000000e+00 -1.986821e-09 1.000000e+00
    outer loop
      vertex   -3.750000e+01 6.000000e+01 2.000000e+00
      vertex   -4.250000e+01 6.000000e+01 2.000000e+00
      vertex   -3.750000e+01 4.500000e+01 2.000000e+00
    endloop
  endfacet
  facet normal 0.000000e+00 -1.986821e-09 1.000000e+00
    outer loop
      vertex   -3.750000e+01 4.500000e+01 2.000000e+00
      vertex   -4.250000e+01 6.000000e+01 2.000000e+00
      vertex   -4.250000e+01 4.500000e+01 2.000000e+00
    endloop
  endfacet
  facet normal 0.000000e+00 0.000000e+00 1.000000e+00
    outer loop
      vertex   -3.500000e+01 4.250000e+01 2.000000e+00
      vertex   -4.250000e+01 4.500000e+01 2.000000e+00
      vertex   -3.500000e+01 3.750000e+01 2.000000e+00
    endloop
  endfacet
  facet normal 0.000000e+00 0.000000e+00 1.000000e+00
    outer loop
      vertex   -2.000000e+01 3.750000e+01 2.000000e+00
      vertex   -3.500000e+01 4.250000e+01 2.000000e+00
      vertex   -3.500000e+01 3.750000e+01 2.000000e+00
    endloop
  endfacet
  facet normal 0.000000e+00 -0.000000e+00 1.000000e+00
    outer loop
      vertex   -2.000000e+01 3.750000e+01 2.000000e+00
      vertex   -2.000000e+01 4.250000e+01 2.000000e+00
      vertex   -3.500000e+01 4.250000e+01 2.000000e+00
    endloop
  endfacet
  facet normal -3.973643e-09 0.000000e+00 1.000000e+00
    outer loop
      vertex   -2.000000e+01 3.750000e+01 2.000000e+00
      vertex   -1.250000e+01 3.500000e+01 2.000000e+00
      vertex   -2.000000e+01 4.250000e+01 2.000000e+00
    endloop
  endfacet
  facet normal -0.000000e+00 1.192093e-08 1.000000e+00
    outer loop
      vertex   -2.000000e+01 3.750000e+01 2.000000e+00
      vertex   -1.750000e+01 3.500000e+01 2.000000e+00
      vertex   -1.250000e+01 3.500000e+01 2.000000e+00
    endloop
  endfacet
  facet normal -1.192093e-08 0.000000e+00 1.000000e+00
    outer loop
      vertex   -2.000000e+01 3.750000e+01 2.000000e+00
      vertex   -2.000000e+01 3.500000e+01 2.000000e+00
      vertex   -1.750000e+01 3.500000e+01 2.000000e+00
    endloop
  endfacet
  facet normal -0.000000e+00 0.000000e+00 1.000000e+00
    outer loop
      vertex   -4.500000e+01 4.500000e+01 2.000000e+00
      vertex   -4.500000e+01 4.250000e+01 2.000000e+00
      vertex   -4.250000e+01 4.500000e+01 2.000000e+00
    endloop
  endfacet
  facet normal 0.000000e+00 0.000000e+00 1.000000e+00
    outer loop
      vertex   -4.250000e+01 4.500000e+01 2.000000e+00
      vertex   -4.500000e+01 4.250000e+01 2.000000e+00
      vertex   -3.500000e+01 3.750000e+01 2.000000e+00
    endloop
  endfacet
  facet normal 0.000000e+00 0.000000e+00 1.000000e+00
    outer loop
      vertex   -3.500000e+01 3.750000e+01 2.000000e+00
      vertex   -4.500000e+01 4.250000e+01 2.000000e+00
      vertex   -3.750000e+01 3.500000e+01 2.000000e+00
    endloop
  endfacet
  facet normal 0.000000e+00 -0.000000e+00 1.000000e+00
    outer loop
      vertex   -3.500000e+01 3.500000e+01 2.000000e+00
      vertex   -3.500000e+01 3.750000e+01 2.000000e+00
      vertex   -3.750000e+01 3.500000e+01 2.000000e+00
    endloop
  endfacet
  facet normal 0.000000e+00 0.000000e+00 1.000000e+00
    outer loop
      vertex   -3.750000e+01 3.500000e+01 2.000000e+00
      vertex   -4.500000e+01 4.250000e+01 2.000000e+00
      vertex   -4.500000e+01 3.750000e+01 2.000000e+00
    endloop
  endfacet
  facet normal 0.000000e+00 0.000000e+00 1.000000e+00
    outer loop
      vertex   -4.250000e+01 3.500000e+01 2.000000e+00
      vertex   -4.500000e+01 3.750000e+01 2.000000e+00
      vertex   -4.500000e+01 3.500000e+01 2.000000e+00
    endloop
  endfacet
  facet normal 0.000000e+00 -0.000000e+00 1.000000e+00
    outer loop
      vertex   -4.250000e+01 3.500000e+01 2.000000e+00
      vertex   -3.750000e+01 3.500000e+01 2.000000e+00
      vertex   -4.500000e+01 3.750000e+01 2.000000e+00
    endloop
  endfacet
  facet normal -0.000000e+00 0.000000e+00 1.000000e+00
    outer loop
      vertex   -4.250000e+01 3.500000e+01 2.000000e+00
      vertex   -3.750000e+01 2.000000e+01 2.000000e+00
      vertex   -3.750000e+01 3.500000e+01 2.000000e+00
    endloop
  endfacet
  facet normal -0.000000e+00 0.000000e+00 1.000000e+00
    outer loop
      vertex   -4.250000e+01 3.500000e+01 2.000000e+00
      vertex   -4.250000e+01 2.000000e+01 2.000000e+00
      vertex   -3.750000e+01 2.000000e+01 2.000000e+00
    endloop
  endfacet
  facet normal 0.000000e+00 0.000000e+00 1.000000e+00
    outer loop
      vertex   -3.750000e+01 2.000000e+01 2.000000e+00
      vertex   -4.250000e+01 2.000000e+01 2.000000e+00
      vertex   -3.500000e+01 1.750000e+01 2.000000e+00
    endloop
  endfacet
  facet normal 0.000000e+00 0.000000e+00 1.000000e+00
    outer loop
      vertex   -3.500000e+01 2.000000e+01 2.000000e+00
      vertex   -3.750000e+01 2.000000e+01 2.000000e+00
      vertex   -3.500000e+01 1.750000e+01 2.000000e+00
    endloop
  endfacet
  facet normal 0.000000e+00 0.000000e+00 1.000000e+00
    outer loop
      vertex   -6.000000e+01 4.500000e+01 2.000000e+00
      vertex   -6.250000e+01 4.500000e+01 2.000000e+00
      vertex   -6.000000e+01 4.250000e+01 2.000000e+00
    endloop
  endfacet
  facet normal 0.000000e+00 0.000000e+00 1.000000e+00
    outer loop
      vertex   -6.000000e+01 4.250000e+01 2.000000e+00
      vertex   -6.250000e+01 4.500000e+01 2.000000e+00
      vertex   -6.750000e+01 3.500000e+01 2.000000e+00
    endloop
  endfacet
  facet normal -0.000000e+00 0.000000e+00 1.000000e+00
    outer loop
      vertex   -6.000000e+01 3.750000e+01 2.000000e+00
      vertex   -6.750000e+01 3.500000e+01 2.000000e+00
      vertex   -6.250000e+01 3.500000e+01 2.000000e+00
    endloop
  endfacet
  facet normal 0.000000e+00 -0.000000e+00 1.000000e+00
    outer loop
      vertex   -6.000000e+01 3.500000e+01 2.000000e+00
      vertex   -6.000000e+01 3.750000e+01 2.000000e+00
      vertex   -6.250000e+01 3.500000e+01 2.000000e+00
    endloop
  endfacet
  facet normal 0.000000e+00 0.000000e+00 1.000000e+00
    outer loop
      vertex   -6.750000e+01 3.500000e+01 2.000000e+00
      vertex   -6.000000e+01 3.750000e+01 2.000000e+00
      vertex   -6.000000e+01 4.250000e+01 2.000000e+00
    endloop
  endfacet
  facet normal -0.000000e+00 0.000000e+00 1.000000e+00
    outer loop
      vertex   -6.000000e+01 4.250000e+01 2.000000e+00
      vertex   -6.000000e+01 3.750000e+01 2.000000e+00
      vertex   -4.500000e+01 3.750000e+01 2.000000e+00
    endloop
  endfacet
  facet normal 0.000000e+00 0.000000e+00 1.000000e+00
    outer loop
      vertex   -4.500000e+01 4.250000e+01 2.000000e+00
      vertex   -6.000000e+01 4.250000e+01 2.000000e+00
      vertex   -4.500000e+01 3.750000e+01 2.000000e+00
    endloop
  endfacet
  facet normal -0.000000e+00 0.000000e+00 1.000000e+00
    outer loop
      vertex   -4.500000e+01 2.000000e+01 2.000000e+00
      vertex   -4.500000e+01 1.750000e+01 2.000000e+00
      vertex   -4.250000e+01 2.000000e+01 2.000000e+00
    endloop
  endfacet
  facet normal 0.000000e+00 0.000000e+00 1.000000e+00
    outer loop
      vertex   -4.250000e+01 2.000000e+01 2.000000e+00
      vertex   -4.500000e+01 1.750000e+01 2.000000e+00
      vertex   -3.500000e+01 1.250000e+01 2.000000e+00
    endloop
  endfacet
  facet normal -0.000000e+00 0.000000e+00 1.000000e+00
    outer loop
      vertex   -3.500000e+01 1.750000e+01 2.000000e+00
      vertex   -3.500000e+01 1.250000e+01 2.000000e+00
      vertex   -2.000000e+01 1.250000e+01 2.000000e+00
    endloop
  endfacet
  facet normal 0.000000e+00 0.000000e+00 1.000000e+00
    outer loop
      vertex   -2.000000e+01 1.750000e+01 2.000000e+00
      vertex   -2.000000e+01 1.250000e+01 2.000000e+00
      vertex   -1.000000e+01 1.000000e+01 2.000000e+00
    endloop
  endfacet
  facet normal 0.000000e+00 -2.980232e-09 1.000000e+00
    outer loop
      vertex   -1.750000e+01 2.000000e+01 2.000000e+00
      vertex   -1.000000e+01 1.000000e+01 2.000000e+00
      vertex   -1.250000e+01 2.000000e+01 2.000000e+00
    endloop
  endfacet
  facet normal -0.000000e+00 0.000000e+00 1.000000e+00
    outer loop
      vertex   -1.750000e+01 3.500000e+01 2.000000e+00
      vertex   -1.250000e+01 2.000000e+01 2.000000e+00
      vertex   -1.250000e+01 3.500000e+01 2.000000e+00
    endloop
  endfacet
  facet normal -0.000000e+00 0.000000e+00 1.000000e+00
    outer loop
      vertex   -1.750000e+01 3.500000e+01 2.000000e+00
      vertex   -1.750000e+01 2.000000e+01 2.000000e+00
      vertex   -1.250000e+01 2.000000e+01 2.000000e+00
    endloop
  endfacet
  facet normal 0.000000e+00 0.000000e+00 1.000000e+00
    outer loop
      vertex   -3.500000e+01 1.250000e+01 2.000000e+00
      vertex   -4.500000e+01 1.750000e+01 2.000000e+00
      vertex   -4.500000e+01 1.250000e+01 2.000000e+00
    endloop
  endfacet
  facet normal 0.000000e+00 0.000000e+00 1.000000e+00
    outer loop
      vertex   -3.500000e+01 1.000000e+01 2.000000e+00
      vertex   -4.500000e+01 1.250000e+01 2.000000e+00
      vertex   -4.500000e+01 1.000000e+01 2.000000e+00
    endloop
  endfacet
  facet normal 0.000000e+00 -0.000000e+00 1.000000e+00
    outer loop
      vertex   -3.500000e+01 1.000000e+01 2.000000e+00
      vertex   -3.500000e+01 1.250000e+01 2.000000e+00
      vertex   -4.500000e+01 1.250000e+01 2.000000e+00
    endloop
  endfacet
  facet normal 1.192093e-08 0.000000e+00 1.000000e+00
    outer loop
      vertex   -6.000000e+01 2.000000e+01 2.000000e+00
      vertex   -6.250000e+01 2.000000e+01 2.000000e+00
      vertex   -6.000000e+01 1.750000e+01 2.000000e+00
    endloop
  endfacet
  facet normal 5.108970e-09 -6.811959e-09 1.000000e+00
    outer loop
      vertex   -6.000000e+01 1.750000e+01 2.000000e+00
      vertex   -6.250000e+01 2.000000e+01 2.000000e+00
      vertex   -7.000000e+01 1.000000e+01 2.000000e+00
    endloop
  endfacet
  facet normal -0.000000e+00 0.000000e+00 1.000000e+00
    outer loop
      vertex   -6.000000e+01 1.250000e+01 2.000000e+00
      vertex   -7.000000e+01 1.000000e+01 2.000000e+00
      vertex   -6.000000e+01 1.000000e+01 2.000000e+00
    endloop
  endfacet
  facet normal 0.000000e+00 -0.000000e+00 1.000000e+00
    outer loop
      vertex   -6.000000e+01 1.250000e+01 2.000000e+00
      vertex   -6.000000e+01 1.750000e+01 2.000000e+00
      vertex   -7.000000e+01 1.000000e+01 2.000000e+00
    endloop
  endfacet
  facet normal 0.000000e+00 -0.000000e+00 1.000000e+00
    outer loop
      vertex   -6.000000e+01 1.250000e+01 2.000000e+00
      vertex   -4.500000e+01 1.250000e+01 2.000000e+00
      vertex   -6.000000e+01 1.750000e+01 2.000000e+00
    endloop
  endfacet
  facet normal -0.000000e+00 0.000000e+00 1.000000e+00
    outer loop
      vertex   -6.000000e+01 1.750000e+01 2.000000e+00
      vertex   -4.500000e+01 1.250000e+01 2.000000e+00
      vertex   -4.500000e+01 1.750000e+01 2.000000e+00
    endloop
  endfacet
  facet normal 0.000000e+00 1.986821e-09 1.000000e+00
    outer loop
      vertex   -6.250000e+01 3.500000e+01 2.000000e+00
      vertex   -6.750000e+01 3.500000e+01 2.000000e+00
      vertex   -6.250000e+01 2.000000e+01 2.000000e+00
    endloop
  endfacet
  facet normal 0.000000e+00 1.986821e-09 1.000000e+00
    outer loop
      vertex   -6.250000e+01 2.000000e+01 2.000000e+00
      vertex   -6.750000e+01 3.500000e+01 2.000000e+00
      vertex   -6.750000e+01 2.000000e+01 2.000000e+00
    endloop
  endfacet
  facet normal -1.192093e-08 0.000000e+00 1.000000e+00
    outer loop
      vertex   -7.000000e+01 1.000000e+01 2.000000e+00
      vertex   -6.750000e+01 2.000000e+01 2.000000e+00
      vertex   -7.000000e+01 2.000000e+01 2.000000e+00
    endloop
  endfacet
  facet normal 0.000000e+00 -2.980232e-09 1.000000e+00
    outer loop
      vertex   -7.000000e+01 1.000000e+01 2.000000e+00
      vertex   -6.250000e+01 2.000000e+01 2.000000e+00
      vertex   -6.750000e+01 2.000000e+01 2.000000e+00
    endloop
  endfacet
  facet normal -0.000000e+00 0.000000e+00 1.000000e+00
    outer loop
      vertex   -7.000000e+01 4.500000e+01 2.000000e+00
      vertex   -7.000000e+01 3.500000e+01 2.000000e+00
      vertex   -6.750000e+01 4.500000e+01 2.000000e+00
    endloop
  endfacet
  facet normal -0.000000e+00 0.000000e+00 1.000000e+00
    outer loop
      vertex   -6.750000e+01 4.500000e+01 2.000000e+00
      vertex   -7.000000e+01 3.500000e+01 2.000000e+00
      vertex   -6.750000e+01 3.500000e+01 2.000000e+00
    endloop
  endfacet
  facet normal 0.000000e+00 0.000000e+00 1.000000e+00
    outer loop
      vertex   -6.250000e+01 4.500000e+01 2.000000e+00
      vertex   -6.750000e+01 4.500000e+01 2.000000e+00
      vertex   -6.750000e+01 3.500000e+01 2.000000e+00
    endloop
  endfacet
  facet normal 0.000000e+00 -1.986821e-09 1.000000e+00
    outer loop
      vertex   -6.250000e+01 4.500000e+01 2.000000e+00
      vertex   -6.750000e+01 6.000000e+01 2.000000e+00
      vertex   -6.750000e+01 4.500000e+01 2.000000e+00
    endloop
  endfacet
  facet normal -0.000000e+00 0.000000e+00 1.000000e+00
    outer loop
      vertex   -4.250000e+01 2.000000e+01 2.000000e+00
      vertex   -3.500000e+01 1.250000e+01 2.000000e+00
      vertex   -3.500000e+01 1.750000e+01 2.000000e+00
    endloop
  endfacet
  facet normal -0.000000e+00 0.000000e+00 1.000000e+00
    outer loop
      vertex   -2.000000e+01 1.250000e+01 2.000000e+00
      vertex   -2.000000e+01 1.000000e+01 2.000000e+00
      vertex   -1.000000e+01 1.000000e+01 2.000000e+00
    endloop
  endfacet
  facet normal 1.192093e-08 -0.000000e+00 1.000000e+00
    outer loop
      vertex   -1.000000e+01 1.000000e+01 2.000000e+00
      vertex   -1.000000e+01 2.000000e+01 2.000000e+00
      vertex   -1.250000e+01 2.000000e+01 2.000000e+00
    endloop
  endfacet
  facet normal 1.192093e-08 0.000000e+00 1.000000e+00
    outer loop
      vertex   -1.000000e+01 3.500000e+01 2.000000e+00
      vertex   -1.250000e+01 4.500000e+01 2.000000e+00
      vertex   -1.250000e+01 3.500000e+01 2.000000e+00
    endloop
  endfacet
  facet normal 1.192093e-08 -0.000000e+00 1.000000e+00
    outer loop
      vertex   -1.000000e+01 3.500000e+01 2.000000e+00
      vertex   -1.000000e+01 4.500000e+01 2.000000e+00
      vertex   -1.250000e+01 4.500000e+01 2.000000e+00
    endloop
  endfacet
  facet normal 0.000000e+00 0.000000e+00 1.000000e+00
    outer loop
      vertex   -1.250000e+01 6.000000e+01 2.000000e+00
      vertex   -1.750000e+01 6.000000e+01 2.000000e+00
      vertex   -1.250000e+01 4.500000e+01 2.000000e+00
    endloop
  endfacet
  facet normal 0.000000e+00 0.000000e+00 1.000000e+00
    outer loop
      vertex   -1.250000e+01 6.000000e+01 2.000000e+00
      vertex   -2.000000e+01 6.281136e+01 2.000000e+00
      vertex   -1.750000e+01 6.000000e+01 2.000000e+00
    endloop
  endfacet
  facet normal -1.192093e-08 -1.060068e-08 1.000000e+00
    outer loop
      vertex   -1.750000e+01 6.000000e+01 2.000000e+00
      vertex   -2.000000e+01 6.281136e+01 2.000000e+00
      vertex   -2.000000e+01 6.000000e+01 2.000000e+00
    endloop
  endfacet
  facet normal 0.000000e+00 0.000000e+00 1.000000e+00
    outer loop
      vertex   -2.000000e+01 6.781136e+01 2.000000e+00
      vertex   -3.500000e+01 6.781136e+01 2.000000e+00
      vertex   -2.000000e+01 6.281136e+01 2.000000e+00
    endloop
  endfacet
  facet normal 0.000000e+00 1.361682e-08 1.000000e+00
    outer loop
      vertex   -3.500000e+01 7.000000e+01 2.000000e+00
      vertex   -4.500000e+01 7.000000e+01 2.000000e+00
      vertex   -3.500000e+01 6.781136e+01 2.000000e+00
    endloop
  endfacet
  facet normal 0.000000e+00 1.361682e-08 1.000000e+00
    outer loop
      vertex   -3.500000e+01 6.781136e+01 2.000000e+00
      vertex   -4.500000e+01 7.000000e+01 2.000000e+00
      vertex   -4.500000e+01 6.781136e+01 2.000000e+00
    endloop
  endfacet
  facet normal 0.000000e+00 -0.000000e+00 1.000000e+00
    outer loop
      vertex   -3.500000e+01 6.281136e+01 2.000000e+00
      vertex   -3.500000e+01 6.781136e+01 2.000000e+00
      vertex   -4.500000e+01 6.781136e+01 2.000000e+00
    endloop
  endfacet
  facet normal 0.000000e+00 0.000000e+00 1.000000e+00
    outer loop
      vertex   -3.750000e+01 6.000000e+01 2.000000e+00
      vertex   -4.500000e+01 6.781136e+01 2.000000e+00
      vertex   -4.500000e+01 6.281136e+01 2.000000e+00
    endloop
  endfacet
  facet normal 0.000000e+00 -0.000000e+00 1.000000e+00
    outer loop
      vertex   -4.500000e+01 6.281136e+01 2.000000e+00
      vertex   -4.500000e+01 6.781136e+01 2.000000e+00
      vertex   -6.000000e+01 6.781136e+01 2.000000e+00
    endloop
  endfacet
  facet normal 0.000000e+00 -0.000000e+00 1.000000e+00
    outer loop
      vertex   -6.000000e+01 6.281136e+01 2.000000e+00
      vertex   -4.500000e+01 6.281136e+01 2.000000e+00
      vertex   -6.000000e+01 6.781136e+01 2.000000e+00
    endloop
  endfacet
  facet normal -0.000000e+00 0.000000e+00 1.000000e+00
    outer loop
      vertex   -1.750000e+01 6.000000e+01 2.000000e+00
      vertex   -1.750000e+01 4.500000e+01 2.000000e+00
      vertex   -1.250000e+01 4.500000e+01 2.000000e+00
    endloop
  endfacet
  facet normal 0.000000e+00 0.000000e+00 1.000000e+00
    outer loop
      vertex   -1.250000e+01 4.500000e+01 2.000000e+00
      vertex   -1.750000e+01 4.500000e+01 2.000000e+00
      vertex   -1.250000e+01 3.500000e+01 2.000000e+00
    endloop
  endfacet
  facet normal -7.947286e-09 -3.973643e-09 1.000000e+00
    outer loop
      vertex   -1.250000e+01 3.500000e+01 2.000000e+00
      vertex   -1.750000e+01 4.500000e+01 2.000000e+00
      vertex   -2.000000e+01 4.250000e+01 2.000000e+00
    endloop
  endfacet
  facet normal -1.192093e-08 0.000000e+00 1.000000e+00
    outer loop
      vertex   -2.000000e+01 4.250000e+01 2.000000e+00
      vertex   -1.750000e+01 4.500000e+01 2.000000e+00
      vertex   -2.000000e+01 4.500000e+01 2.000000e+00
    endloop
  endfacet
  facet normal 0.000000e+00 0.000000e+00 1.000000e+00
    outer loop
      vertex   -3.500000e+01 4.500000e+01 2.000000e+00
      vertex   -3.750000e+01 4.500000e+01 2.000000e+00
      vertex   -3.500000e+01 4.250000e+01 2.000000e+00
    endloop
  endfacet
  facet normal 0.000000e+00 0.000000e+00 1.000000e+00
    outer loop
      vertex   -3.500000e+01 4.250000e+01 2.000000e+00
      vertex   -3.750000e+01 4.500000e+01 2.000000e+00
      vertex   -4.250000e+01 4.500000e+01 2.000000e+00
    endloop
  endfacet
  facet normal 1.192093e-08 -1.060068e-08 1.000000e+00
    outer loop
      vertex   -3.750000e+01 6.000000e+01 2.000000e+00
      vertex   -3.500000e+01 6.000000e+01 2.000000e+00
      vertex   -3.500000e+01 6.281136e+01 2.000000e+00
    endloop
  endfacet
  facet normal -1.192093e-08 0.000000e+00 1.000000e+00
    outer loop
      vertex   -2.000000e+01 2.000000e+01 2.000000e+00
      vertex   -2.000000e+01 1.750000e+01 2.000000e+00
      vertex   -1.750000e+01 2.000000e+01 2.000000e+00
    endloop
  endfacet
  facet normal -5.108970e-09 -6.811959e-09 1.000000e+00
    outer loop
      vertex   -1.750000e+01 2.000000e+01 2.000000e+00
      vertex   -2.000000e+01 1.750000e+01 2.000000e+00
      vertex   -1.000000e+01 1.000000e+01 2.000000e+00
    endloop
  endfacet
  facet normal 0.000000e+00 0.000000e+00 1.000000e+00
    outer loop
      vertex   -2.000000e+01 1.750000e+01 2.000000e+00
      vertex   -3.500000e+01 1.750000e+01 2.000000e+00
      vertex   -2.000000e+01 1.250000e+01 2.000000e+00
    endloop
  endfacet
  facet normal -1.000000e+00 -0.000000e+00 -0.000000e+00
    outer loop
      vertex   -4.500000e+01 6.281136e+01 2.000000e+00
      vertex   -4.500000e+01 6.281136e+01 2.980232e-08
      vertex   -4.500000e+01 6.000000e+01 2.000000e+00
    endloop
  endfacet
  facet normal -1.000000e+00 0.000000e+00 -0.000000e+00
    outer loop
      vertex   -4.500000e+01 6.000000e+01 2.000000e+00
      vertex   -4.500000e+01 6.281136e+01 2.980232e-08
      vertex   -4.500000e+01 6.000000e+01 0.000000e+00
    endloop
  endfacet
  facet normal 1.000000e+00 -0.000000e+00 0.000000e+00
    outer loop
      vertex   -3.500000e+01 6.781136e+01 2.000000e+00
      vertex   -3.500000e+01 6.781136e+01 2.980232e-08
      vertex   -3.500000e+01 7.000000e+01 2.000000e+00
    endloop
  endfacet
  facet normal 1.000000e+00 0.000000e+00 0.000000e+00
    outer loop
      vertex   -3.500000e+01 7.000000e+01 2.000000e+00
      vertex   -3.500000e+01 6.781136e+01 2.980232e-08
      vertex   -3.500000e+01 7.000000e+01 0.000000e+00
    endloop
  endfacet
  facet normal -1.000000e+00 0.000000e+00 0.000000e+00
    outer loop
      vertex   -6.750000e+01 4.500000e+01 0.000000e+00
      vertex   -6.750000e+01 4.500000e+01 2.000000e+00
      vertex   -6.750000e+01 6.000000e+01 2.980232e-08
    endloop
  endfacet
  facet normal -1.000000e+00 0.000000e+00 0.000000e+00
    outer loop
      vertex   -6.750000e+01 6.000000e+01 2.980232e-08
      vertex   -6.750000e+01 4.500000e+01 2.000000e+00
      vertex   -6.750000e+01 6.000000e+01 2.000000e+00
    endloop
  endfacet
  facet normal 1.000000e+00 0.000000e+00 -0.000000e+00
    outer loop
      vertex   -6.250000e+01 3.500000e+01 0.000000e+00
      vertex   -6.250000e+01 3.500000e+01 2.000000e+00
      vertex   -6.250000e+01 2.000000e+01 2.980232e-08
    endloop
  endfacet
  facet normal 1.000000e+00 0.000000e+00 -0.000000e+00
    outer loop
      vertex   -6.250000e+01 2.000000e+01 2.980232e-08
      vertex   -6.250000e+01 3.500000e+01 2.000000e+00
      vertex   -6.250000e+01 2.000000e+01 2.000000e+00
    endloop
  endfacet
  facet normal 0.000000e+00 -1.000000e+00 0.000000e+00
    outer loop
      vertex   -6.250000e+01 6.000000e+01 2.000000e+00
      vertex   -6.250000e+01 6.000000e+01 2.980232e-08
      vertex   -6.000000e+01 6.000000e+01 2.000000e+00
    endloop
  endfacet
  facet normal 0.000000e+00 -1.000000e+00 -0.000000e+00
    outer loop
      vertex   -6.000000e+01 6.000000e+01 2.000000e+00
      vertex   -6.250000e+01 6.000000e+01 2.980232e-08
      vertex   -6.000000e+01 6.000000e+01 0.000000e+00
    endloop
  endfacet
  facet normal 0.000000e+00 -1.000000e+00 -0.000000e+00
    outer loop
      vertex   -6.750000e+01 6.000000e+01 2.000000e+00
      vertex   -7.000000e+01 6.000000e+01 2.000000e+00
      vertex   -6.750000e+01 6.000000e+01 2.980232e-08
    endloop
  endfacet
  facet normal -0.000000e+00 -1.000000e+00 -0.000000e+00
    outer loop
      vertex   -6.750000e+01 6.000000e+01 2.980232e-08
      vertex   -7.000000e+01 6.000000e+01 2.000000e+00
      vertex   -7.000000e+01 6.000000e+01 0.000000e+00
    endloop
  endfacet
  facet normal 0.000000e+00 1.000000e+00 0.000000e+00
    outer loop
      vertex   -6.000000e+01 7.000000e+01 2.000000e+00
      vertex   -6.000000e+01 7.000000e+01 0.000000e+00
      vertex   -7.000000e+01 7.000000e+01 2.000000e+00
    endloop
  endfacet
  facet normal 0.000000e+00 1.000000e+00 0.000000e+00
    outer loop
      vertex   -7.000000e+01 7.000000e+01 2.000000e+00
      vertex   -6.000000e+01 7.000000e+01 0.000000e+00
      vertex   -7.000000e+01 7.000000e+01 0.000000e+00
    endloop
  endfacet
  facet normal 0.000000e+00 1.000000e+00 0.000000e+00
    outer loop
      vertex   -6.750000e+01 2.000000e+01 2.000000e+00
      vertex   -6.750000e+01 2.000000e+01 2.980232e-08
      vertex   -7.000000e+01 2.000000e+01 2.000000e+00
    endloop
  endfacet
  facet normal 0.000000e+00 1.000000e+00 0.000000e+00
    outer loop
      vertex   -7.000000e+01 2.000000e+01 2.000000e+00
      vertex   -6.750000e+01 2.000000e+01 2.980232e-08
      vertex   -7.000000e+01 2.000000e+01 0.000000e+00
    endloop
  endfacet
  facet normal -1.000000e+00 0.000000e+00 0.000000e+00
    outer loop
      vertex   -4.500000e+01 1.750000e+01 0.000000e+00
      vertex   -4.500000e+01 1.750000e+01 2.000000e+00
      vertex   -4.500000e+01 2.000000e+01 0.000000e+00
    endloop
  endfacet
  facet normal -1.000000e+00 0.000000e+00 0.000000e+00
    outer loop
      vertex   -4.500000e+01 2.000000e+01 0.000000e+00
      vertex   -4.500000e+01 1.750000e+01 2.000000e+00
      vertex   -4.500000e+01 2.000000e+01 2.000000e+00
    endloop
  endfacet
  facet normal -1.000000e+00 -0.000000e+00 -0.000000e+00
    outer loop
      vertex   -4.500000e+01 1.250000e+01 2.000000e+00
      vertex   -4.500000e+01 1.250000e+01 0.000000e+00
      vertex   -4.500000e+01 1.000000e+01 2.000000e+00
    endloop
  endfacet
  facet normal -1.000000e+00 -0.000000e+00 -0.000000e+00
    outer loop
      vertex   -4.500000e+01 1.000000e+01 2.000000e+00
      vertex   -4.500000e+01 1.250000e+01 0.000000e+00
      vertex   -4.500000e+01 1.000000e+01 0.000000e+00
    endloop
  endfacet
  facet normal 1.000000e+00 -0.000000e+00 0.000000e+00
    outer loop
      vertex   -3.500000e+01 1.750000e+01 2.000000e+00
      vertex   -3.500000e+01 1.750000e+01 0.000000e+00
      vertex   -3.500000e+01 2.000000e+01 2.000000e+00
    endloop
  endfacet
  facet normal 1.000000e+00 -0.000000e+00 0.000000e+00
    outer loop
      vertex   -3.500000e+01 2.000000e+01 2.000000e+00
      vertex   -3.500000e+01 1.750000e+01 0.000000e+00
      vertex   -3.500000e+01 2.000000e+01 0.000000e+00
    endloop
  endfacet
  facet normal -0.000000e+00 1.000000e+00 0.000000e+00
    outer loop
      vertex   -3.750000e+01 2.000000e+01 0.000000e+00
      vertex   -3.750000e+01 2.000000e+01 2.000000e+00
      vertex   -3.500000e+01 2.000000e+01 0.000000e+00
    endloop
  endfacet
  facet normal 0.000000e+00 1.000000e+00 -0.000000e+00
    outer loop
      vertex   -3.500000e+01 2.000000e+01 0.000000e+00
      vertex   -3.750000e+01 2.000000e+01 2.000000e+00
      vertex   -3.500000e+01 2.000000e+01 2.000000e+00
    endloop
  endfacet
  facet normal 0.000000e+00 1.000000e+00 0.000000e+00
    outer loop
      vertex   -4.250000e+01 2.000000e+01 2.000000e+00
      vertex   -4.250000e+01 2.000000e+01 0.000000e+00
      vertex   -4.500000e+01 2.000000e+01 2.000000e+00
    endloop
  endfacet
  facet normal 0.000000e+00 1.000000e+00 0.000000e+00
    outer loop
      vertex   -4.500000e+01 2.000000e+01 2.000000e+00
      vertex   -4.250000e+01 2.000000e+01 0.000000e+00
      vertex   -4.500000e+01 2.000000e+01 0.000000e+00
    endloop
  endfacet
  facet normal 1.000000e+00 0.000000e+00 -0.000000e+00
    outer loop
      vertex   -3.500000e+01 1.250000e+01 0.000000e+00
      vertex   -3.500000e+01 1.250000e+01 2.000000e+00
      vertex   -3.500000e+01 1.000000e+01 0.000000e+00
    endloop
  endfacet
  facet normal 1.000000e+00 0.000000e+00 -0.000000e+00
    outer loop
      vertex   -3.500000e+01 1.000000e+01 0.000000e+00
      vertex   -3.500000e+01 1.250000e+01 2.000000e+00
      vertex   -3.500000e+01 1.000000e+01 2.000000e+00
    endloop
  endfacet
  facet normal 0.000000e+00 1.000000e+00 0.000000e+00
    outer loop
      vertex   -4.500000e+01 1.750000e+01 2.000000e+00
      vertex   -4.500000e+01 1.750000e+01 0.000000e+00
      vertex   -6.000000e+01 1.750000e+01 2.000000e+00
    endloop
  endfacet
  facet normal 0.000000e+00 1.000000e+00 0.000000e+00
    outer loop
      vertex   -6.000000e+01 1.750000e+01 2.000000e+00
      vertex   -4.500000e+01 1.750000e+01 0.000000e+00
      vertex   -6.000000e+01 1.750000e+01 0.000000e+00
    endloop
  endfacet
  facet normal 0.000000e+00 -1.000000e+00 0.000000e+00
    outer loop
      vertex   -3.500000e+01 1.250000e+01 2.000000e+00
      vertex   -3.500000e+01 1.250000e+01 0.000000e+00
      vertex   -2.000000e+01 1.250000e+01 2.000000e+00
    endloop
  endfacet
  facet normal 0.000000e+00 -1.000000e+00 -0.000000e+00
    outer loop
      vertex   -2.000000e+01 1.250000e+01 2.000000e+00
      vertex   -3.500000e+01 1.250000e+01 0.000000e+00
      vertex   -2.000000e+01 1.250000e+01 0.000000e+00
    endloop
  endfacet
  facet normal 1.000000e+00 -0.000000e+00 0.000000e+00
    outer loop
      vertex   -3.750000e+01 2.000000e+01 2.000000e+00
      vertex   -3.750000e+01 2.000000e+01 0.000000e+00
      vertex   -3.750000e+01 3.500000e+01 2.000000e+00
    endloop
  endfacet
  facet normal 1.000000e+00 -0.000000e+00 0.000000e+00
    outer loop
      vertex   -3.750000e+01 3.500000e+01 2.000000e+00
      vertex   -3.750000e+01 2.000000e+01 0.000000e+00
      vertex   -3.750000e+01 3.500000e+01 0.000000e+00
    endloop
  endfacet
  facet normal -1.000000e+00 0.000000e+00 0.000000e+00
    outer loop
      vertex   -1.750000e+01 4.500000e+01 2.980232e-08
      vertex   -1.750000e+01 4.500000e+01 2.000000e+00
      vertex   -1.750000e+01 6.000000e+01 2.980232e-08
    endloop
  endfacet
  facet normal -1.000000e+00 0.000000e+00 0.000000e+00
    outer loop
      vertex   -1.750000e+01 6.000000e+01 2.980232e-08
      vertex   -1.750000e+01 4.500000e+01 2.000000e+00
      vertex   -1.750000e+01 6.000000e+01 2.000000e+00
    endloop
  endfacet
  facet normal 1.000000e+00 -0.000000e+00 0.000000e+00
    outer loop
      vertex   -1.250000e+01 4.500000e+01 2.000000e+00
      vertex   -1.250000e+01 4.500000e+01 2.980232e-08
      vertex   -1.250000e+01 6.000000e+01 2.000000e+00
    endloop
  endfacet
  facet normal 1.000000e+00 -0.000000e+00 0.000000e+00
    outer loop
      vertex   -1.250000e+01 6.000000e+01 2.000000e+00
      vertex   -1.250000e+01 4.500000e+01 2.980232e-08
      vertex   -1.250000e+01 6.000000e+01 2.980232e-08
    endloop
  endfacet
  facet normal 1.000000e+00 -0.000000e+00 0.000000e+00
    outer loop
      vertex   -1.250000e+01 2.000000e+01 2.000000e+00
      vertex   -1.250000e+01 2.000000e+01 2.980232e-08
      vertex   -1.250000e+01 3.500000e+01 2.000000e+00
    endloop
  endfacet
  facet normal 1.000000e+00 -0.000000e+00 0.000000e+00
    outer loop
      vertex   -1.250000e+01 3.500000e+01 2.000000e+00
      vertex   -1.250000e+01 2.000000e+01 2.980232e-08
      vertex   -1.250000e+01 3.500000e+01 2.980232e-08
    endloop
  endfacet
  facet normal -1.000000e+00 0.000000e+00 0.000000e+00
    outer loop
      vertex   -1.750000e+01 2.000000e+01 2.980232e-08
      vertex   -1.750000e+01 2.000000e+01 2.000000e+00
      vertex   -1.750000e+01 3.500000e+01 2.980232e-08
    endloop
  endfacet
  facet normal -1.000000e+00 0.000000e+00 0.000000e+00
    outer loop
      vertex   -1.750000e+01 3.500000e+01 2.980232e-08
      vertex   -1.750000e+01 2.000000e+01 2.000000e+00
      vertex   -1.750000e+01 3.500000e+01 2.000000e+00
    endloop
  endfacet
  facet normal 0.000000e+00 -1.000000e+00 0.000000e+00
    outer loop
      vertex   -1.250000e+01 6.000000e+01 2.000000e+00
      vertex   -1.250000e+01 6.000000e+01 2.980232e-08
      vertex   -1.000000e+01 6.000000e+01 2.000000e+00
    endloop
  endfacet
  facet normal 0.000000e+00 -1.000000e+00 -0.000000e+00
    outer loop
      vertex   -1.000000e+01 6.000000e+01 2.000000e+00
      vertex   -1.250000e+01 6.000000e+01 2.980232e-08
      vertex   -1.000000e+01 6.000000e+01 0.000000e+00
    endloop
  endfacet
  facet normal 0.000000e+00 -1.000000e+00 -0.000000e+00
    outer loop
      vertex   -1.750000e+01 6.000000e+01 2.000000e+00
      vertex   -2.000000e+01 6.000000e+01 2.000000e+00
      vertex   -1.750000e+01 6.000000e+01 2.980232e-08
    endloop
  endfacet
  facet normal -0.000000e+00 -1.000000e+00 -0.000000e+00
    outer loop
      vertex   -1.750000e+01 6.000000e+01 2.980232e-08
      vertex   -2.000000e+01 6.000000e+01 2.000000e+00
      vertex   -2.000000e+01 6.000000e+01 0.000000e+00
    endloop
  endfacet
  facet normal -1.000000e+00 0.000000e+00 -0.000000e+00
    outer loop
      vertex   -2.000000e+01 6.781136e+01 2.000000e+00
      vertex   -2.000000e+01 7.000000e+01 2.000000e+00
      vertex   -2.000000e+01 6.781136e+01 2.980232e-08
    endloop
  endfacet
  facet normal -1.000000e+00 0.000000e+00 0.000000e+00
    outer loop
      vertex   -2.000000e+01 6.781136e+01 2.980232e-08
      vertex   -2.000000e+01 7.000000e+01 2.000000e+00
      vertex   -2.000000e+01 7.000000e+01 0.000000e+00
    endloop
  endfacet
  facet normal 0.000000e+00 1.000000e+00 0.000000e+00
    outer loop
      vertex   -1.000000e+01 7.000000e+01 2.000000e+00
      vertex   -1.000000e+01 7.000000e+01 0.000000e+00
      vertex   -2.000000e+01 7.000000e+01 2.000000e+00
    endloop
  endfacet
  facet normal 0.000000e+00 1.000000e+00 0.000000e+00
    outer loop
      vertex   -2.000000e+01 7.000000e+01 2.000000e+00
      vertex   -1.000000e+01 7.000000e+01 0.000000e+00
      vertex   -2.000000e+01 7.000000e+01 0.000000e+00
    endloop
  endfacet
  facet normal 0.000000e+00 1.000000e+00 0.000000e+00
    outer loop
      vertex   -1.750000e+01 2.000000e+01 2.000000e+00
      vertex   -1.750000e+01 2.000000e+01 2.980232e-08
      vertex   -2.000000e+01 2.000000e+01 2.000000e+00
    endloop
  endfacet
  facet normal 0.000000e+00 1.000000e+00 0.000000e+00
    outer loop
      vertex   -2.000000e+01 2.000000e+01 2.000000e+00
      vertex   -1.750000e+01 2.000000e+01 2.980232e-08
      vertex   -2.000000e+01 2.000000e+01 0.000000e+00
    endloop
  endfacet
  facet normal 0.000000e+00 -1.000000e+00 0.000000e+00
    outer loop
      vertex   -1.250000e+01 3.500000e+01 2.000000e+00
      vertex   -1.250000e+01 3.500000e+01 2.980232e-08
      vertex   -1.000000e+01 3.500000e+01 2.000000e+00
    endloop
  endfacet
  facet normal 0.000000e+00 -1.000000e+00 -0.000000e+00
    outer loop
      vertex   -1.000000e+01 3.500000e+01 2.000000e+00
      vertex   -1.250000e+01 3.500000e+01 2.980232e-08
      vertex   -1.000000e+01 3.500000e+01 0.000000e+00
    endloop
  endfacet
  facet normal 0.000000e+00 1.000000e+00 0.000000e+00
    outer loop
      vertex   -1.750000e+01 4.500000e+01 2.000000e+00
      vertex   -1.750000e+01 4.500000e+01 2.980232e-08
      vertex   -2.000000e+01 4.500000e+01 2.000000e+00
    endloop
  endfacet
  facet normal 0.000000e+00 1.000000e+00 0.000000e+00
    outer loop
      vertex   -2.000000e+01 4.500000e+01 2.000000e+00
      vertex   -1.750000e+01 4.500000e+01 2.980232e-08
      vertex   -2.000000e+01 4.500000e+01 0.000000e+00
    endloop
  endfacet
  facet normal 0.000000e+00 -1.000000e+00 0.000000e+00
    outer loop
      vertex   -3.750000e+01 3.500000e+01 2.000000e+00
      vertex   -3.750000e+01 3.500000e+01 0.000000e+00
      vertex   -3.500000e+01 3.500000e+01 2.000000e+00
    endloop
  endfacet
  facet normal 0.000000e+00 -1.000000e+00 -0.000000e+00
    outer loop
      vertex   -3.500000e+01 3.500000e+01 2.000000e+00
      vertex   -3.750000e+01 3.500000e+01 0.000000e+00
      vertex   -3.500000e+01 3.500000e+01 0.000000e+00
    endloop
  endfacet
  facet normal -1.000000e+00 0.000000e+00 0.000000e+00
    outer loop
      vertex   -4.500000e+01 4.250000e+01 0.000000e+00
      vertex   -4.500000e+01 4.250000e+01 2.000000e+00
      vertex   -4.500000e+01 4.500000e+01 0.000000e+00
    endloop
  endfacet
  facet normal -1.000000e+00 0.000000e+00 0.000000e+00
    outer loop
      vertex   -4.500000e+01 4.500000e+01 0.000000e+00
      vertex   -4.500000e+01 4.250000e+01 2.000000e+00
      vertex   -4.500000e+01 4.500000e+01 2.000000e+00
    endloop
  endfacet
  facet normal -1.000000e+00 -0.000000e+00 -0.000000e+00
    outer loop
      vertex   -4.500000e+01 3.750000e+01 2.000000e+00
      vertex   -4.500000e+01 3.750000e+01 0.000000e+00
      vertex   -4.500000e+01 3.500000e+01 2.000000e+00
    endloop
  endfacet
  facet normal -1.000000e+00 -0.000000e+00 -0.000000e+00
    outer loop
      vertex   -4.500000e+01 3.500000e+01 2.000000e+00
      vertex   -4.500000e+01 3.750000e+01 0.000000e+00
      vertex   -4.500000e+01 3.500000e+01 0.000000e+00
    endloop
  endfacet
  facet normal 1.000000e+00 -0.000000e+00 0.000000e+00
    outer loop
      vertex   -3.500000e+01 4.250000e+01 2.000000e+00
      vertex   -3.500000e+01 4.250000e+01 0.000000e+00
      vertex   -3.500000e+01 4.500000e+01 2.000000e+00
    endloop
  endfacet
  facet normal 1.000000e+00 -0.000000e+00 0.000000e+00
    outer loop
      vertex   -3.500000e+01 4.500000e+01 2.000000e+00
      vertex   -3.500000e+01 4.250000e+01 0.000000e+00
      vertex   -3.500000e+01 4.500000e+01 0.000000e+00
    endloop
  endfacet
  facet normal -0.000000e+00 1.000000e+00 0.000000e+00
    outer loop
      vertex   -3.750000e+01 4.500000e+01 0.000000e+00
      vertex   -3.750000e+01 4.500000e+01 2.000000e+00
      vertex   -3.500000e+01 4.500000e+01 0.000000e+00
    endloop
  endfacet
  facet normal 0.000000e+00 1.000000e+00 -0.000000e+00
    outer loop
      vertex   -3.500000e+01 4.500000e+01 0.000000e+00
      vertex   -3.750000e+01 4.500000e+01 2.000000e+00
      vertex   -3.500000e+01 4.500000e+01 2.000000e+00
    endloop
  endfacet
  facet normal 0.000000e+00 1.000000e+00 0.000000e+00
    outer loop
      vertex   -4.250000e+01 4.500000e+01 2.000000e+00
      vertex   -4.250000e+01 4.500000e+01 0.000000e+00
      vertex   -4.500000e+01 4.500000e+01 2.000000e+00
    endloop
  endfacet
  facet normal 0.000000e+00 1.000000e+00 0.000000e+00
    outer loop
      vertex   -4.500000e+01 4.500000e+01 2.000000e+00
      vertex   -4.250000e+01 4.500000e+01 0.000000e+00
      vertex   -4.500000e+01 4.500000e+01 0.000000e+00
    endloop
  endfacet
  facet normal -0.000000e+00 -1.000000e+00 0.000000e+00
    outer loop
      vertex   -4.250000e+01 3.500000e+01 0.000000e+00
      vertex   -4.250000e+01 3.500000e+01 2.000000e+00
      vertex   -4.500000e+01 3.500000e+01 0.000000e+00
    endloop
  endfacet
  facet normal 0.000000e+00 -1.000000e+00 0.000000e+00
    outer loop
      vertex   -4.500000e+01 3.500000e+01 0.000000e+00
      vertex   -4.250000e+01 3.500000e+01 2.000000e+00
      vertex   -4.500000e+01 3.500000e+01 2.000000e+00
    endloop
  endfacet
  facet normal 1.000000e+00 0.000000e+00 -0.000000e+00
    outer loop
      vertex   -3.500000e+01 3.750000e+01 0.000000e+00
      vertex   -3.500000e+01 3.750000e+01 2.000000e+00
      vertex   -3.500000e+01 3.500000e+01 0.000000e+00
    endloop
  endfacet
  facet normal 1.000000e+00 0.000000e+00 -0.000000e+00
    outer loop
      vertex   -3.500000e+01 3.500000e+01 0.000000e+00
      vertex   -3.500000e+01 3.750000e+01 2.000000e+00
      vertex   -3.500000e+01 3.500000e+01 2.000000e+00
    endloop
  endfacet
  facet normal -1.000000e+00 0.000000e+00 0.000000e+00
    outer loop
      vertex   -4.250000e+01 2.000000e+01 0.000000e+00
      vertex   -4.250000e+01 2.000000e+01 2.000000e+00
      vertex   -4.250000e+01 3.500000e+01 0.000000e+00
    endloop
  endfacet
  facet normal -1.000000e+00 0.000000e+00 0.000000e+00
    outer loop
      vertex   -4.250000e+01 3.500000e+01 0.000000e+00
      vertex   -4.250000e+01 2.000000e+01 2.000000e+00
      vertex   -4.250000e+01 3.500000e+01 2.000000e+00
    endloop
  endfacet
  facet normal -0.000000e+00 1.000000e+00 0.000000e+00
    outer loop
      vertex   -6.000000e+01 4.250000e+01 0.000000e+00
      vertex   -6.000000e+01 4.250000e+01 2.000000e+00
      vertex   -4.500000e+01 4.250000e+01 0.000000e+00
    endloop
  endfacet
  facet normal 0.000000e+00 1.000000e+00 -0.000000e+00
    outer loop
      vertex   -4.500000e+01 4.250000e+01 0.000000e+00
      vertex   -6.000000e+01 4.250000e+01 2.000000e+00
      vertex   -4.500000e+01 4.250000e+01 2.000000e+00
    endloop
  endfacet
  facet normal 0.000000e+00 -1.000000e+00 0.000000e+00
    outer loop
      vertex   -3.500000e+01 3.750000e+01 2.000000e+00
      vertex   -3.500000e+01 3.750000e+01 0.000000e+00
      vertex   -2.000000e+01 3.750000e+01 2.000000e+00
    endloop
  endfacet
  facet normal 0.000000e+00 -1.000000e+00 -0.000000e+00
    outer loop
      vertex   -2.000000e+01 3.750000e+01 2.000000e+00
      vertex   -3.500000e+01 3.750000e+01 0.000000e+00
      vertex   -2.000000e+01 3.750000e+01 0.000000e+00
    endloop
  endfacet
  facet normal 1.000000e+00 0.000000e+00 -0.000000e+00
    outer loop
      vertex   -3.750000e+01 4.500000e+01 0.000000e+00
      vertex   -3.750000e+01 6.000000e+01 2.980232e-08
      vertex   -3.750000e+01 4.500000e+01 2.000000e+00
    endloop
  endfacet
  facet normal 1.000000e+00 -0.000000e+00 0.000000e+00
    outer loop
      vertex   -3.750000e+01 4.500000e+01 2.000000e+00
      vertex   -3.750000e+01 6.000000e+01 2.980232e-08
      vertex   -3.750000e+01 6.000000e+01 2.000000e+00
    endloop
  endfacet
  facet normal -1.000000e+00 0.000000e+00 0.000000e+00
    outer loop
      vertex   -4.250000e+01 4.500000e+01 0.000000e+00
      vertex   -4.250000e+01 4.500000e+01 2.000000e+00
      vertex   -4.250000e+01 6.000000e+01 2.980232e-08
    endloop
  endfacet
  facet normal -1.000000e+00 0.000000e+00 0.000000e+00
    outer loop
      vertex   -4.250000e+01 6.000000e+01 2.980232e-08
      vertex   -4.250000e+01 4.500000e+01 2.000000e+00
      vertex   -4.250000e+01 6.000000e+01 2.000000e+00
    endloop
  endfacet
  facet normal -0.000000e+00 -1.000000e+00 0.000000e+00
    outer loop
      vertex   -3.500000e+01 1.000000e+01 0.000000e+00
      vertex   -3.500000e+01 1.000000e+01 2.000000e+00
      vertex   -4.500000e+01 1.000000e+01 0.000000e+00
    endloop
  endfacet
  facet normal 0.000000e+00 -1.000000e+00 0.000000e+00
    outer loop
      vertex   -4.500000e+01 1.000000e+01 0.000000e+00
      vertex   -3.500000e+01 1.000000e+01 2.000000e+00
      vertex   -4.500000e+01 1.000000e+01 2.000000e+00
    endloop
  endfacet
  facet normal -0.000000e+00 1.000000e+00 0.000000e+00
    outer loop
      vertex   -3.500000e+01 1.750000e+01 0.000000e+00
      vertex   -3.500000e+01 1.750000e+01 2.000000e+00
      vertex   -2.000000e+01 1.750000e+01 0.000000e+00
    endloop
  endfacet
  facet normal 0.000000e+00 1.000000e+00 -0.000000e+00
    outer loop
      vertex   -2.000000e+01 1.750000e+01 0.000000e+00
      vertex   -3.500000e+01 1.750000e+01 2.000000e+00
      vertex   -2.000000e+01 1.750000e+01 2.000000e+00
    endloop
  endfacet
  facet normal 1.000000e+00 0.000000e+00 -0.000000e+00
    outer loop
      vertex   -6.000000e+01 1.250000e+01 0.000000e+00
      vertex   -6.000000e+01 1.250000e+01 2.000000e+00
      vertex   -6.000000e+01 1.000000e+01 0.000000e+00
    endloop
  endfacet
  facet normal 1.000000e+00 0.000000e+00 -0.000000e+00
    outer loop
      vertex   -6.000000e+01 1.000000e+01 0.000000e+00
      vertex   -6.000000e+01 1.250000e+01 2.000000e+00
      vertex   -6.000000e+01 1.000000e+01 2.000000e+00
    endloop
  endfacet
  facet normal 1.000000e+00 -0.000000e+00 0.000000e+00
    outer loop
      vertex   -6.000000e+01 1.750000e+01 2.000000e+00
      vertex   -6.000000e+01 1.750000e+01 0.000000e+00
      vertex   -6.000000e+01 2.000000e+01 2.000000e+00
    endloop
  endfacet
  facet normal 1.000000e+00 -0.000000e+00 0.000000e+00
    outer loop
      vertex   -6.000000e+01 2.000000e+01 2.000000e+00
      vertex   -6.000000e+01 1.750000e+01 0.000000e+00
      vertex   -6.000000e+01 2.000000e+01 0.000000e+00
    endloop
  endfacet
  facet normal 0.000000e+00 -1.000000e+00 0.000000e+00
    outer loop
      vertex   -7.000000e+01 1.000000e+01 2.000000e+00
      vertex   -7.000000e+01 1.000000e+01 0.000000e+00
      vertex   -6.000000e+01 1.000000e+01 2.000000e+00
    endloop
  endfacet
  facet normal 0.000000e+00 -1.000000e+00 -0.000000e+00
    outer loop
      vertex   -6.000000e+01 1.000000e+01 2.000000e+00
      vertex   -7.000000e+01 1.000000e+01 0.000000e+00
      vertex   -6.000000e+01 1.000000e+01 0.000000e+00
    endloop
  endfacet
  facet normal 0.000000e+00 1.000000e+00 0.000000e+00
    outer loop
      vertex   -6.250000e+01 2.000000e+01 2.000000e+00
      vertex   -6.000000e+01 2.000000e+01 2.000000e+00
      vertex   -6.250000e+01 2.000000e+01 2.980232e-08
    endloop
  endfacet
  facet normal -0.000000e+00 1.000000e+00 0.000000e+00
    outer loop
      vertex   -6.250000e+01 2.000000e+01 2.980232e-08
      vertex   -6.000000e+01 2.000000e+01 2.000000e+00
      vertex   -6.000000e+01 2.000000e+01 0.000000e+00
    endloop
  endfacet
  facet normal -0.000000e+00 -1.000000e+00 0.000000e+00
    outer loop
      vertex   -4.500000e+01 1.250000e+01 0.000000e+00
      vertex   -4.500000e+01 1.250000e+01 2.000000e+00
      vertex   -6.000000e+01 1.250000e+01 0.000000e+00
    endloop
  endfacet
  facet normal 0.000000e+00 -1.000000e+00 0.000000e+00
    outer loop
      vertex   -6.000000e+01 1.250000e+01 0.000000e+00
      vertex   -4.500000e+01 1.250000e+01 2.000000e+00
      vertex   -6.000000e+01 1.250000e+01 2.000000e+00
    endloop
  endfacet
  facet normal -1.000000e+00 0.000000e+00 0.000000e+00
    outer loop
      vertex   -2.000000e+01 1.750000e+01 0.000000e+00
      vertex   -2.000000e+01 1.750000e+01 2.000000e+00
      vertex   -2.000000e+01 2.000000e+01 0.000000e+00
    endloop
  endfacet
  facet normal -1.000000e+00 0.000000e+00 0.000000e+00
    outer loop
      vertex   -2.000000e+01 2.000000e+01 0.000000e+00
      vertex   -2.000000e+01 1.750000e+01 2.000000e+00
      vertex   -2.000000e+01 2.000000e+01 2.000000e+00
    endloop
  endfacet
  facet normal -1.000000e+00 -0.000000e+00 -0.000000e+00
    outer loop
      vertex   -2.000000e+01 1.250000e+01 2.000000e+00
      vertex   -2.000000e+01 1.250000e+01 0.000000e+00
      vertex   -2.000000e+01 1.000000e+01 2.000000e+00
    endloop
  endfacet
  facet normal -1.000000e+00 -0.000000e+00 -0.000000e+00
    outer loop
      vertex   -2.000000e+01 1.000000e+01 2.000000e+00
      vertex   -2.000000e+01 1.250000e+01 0.000000e+00
      vertex   -2.000000e+01 1.000000e+01 0.000000e+00
    endloop
  endfacet
  facet normal 0.000000e+00 -1.000000e+00 0.000000e+00
    outer loop
      vertex   -2.000000e+01 1.000000e+01 2.000000e+00
      vertex   -2.000000e+01 1.000000e+01 0.000000e+00
      vertex   -1.000000e+01 1.000000e+01 2.000000e+00
    endloop
  endfacet
  facet normal 0.000000e+00 -1.000000e+00 -0.000000e+00
    outer loop
      vertex   -1.000000e+01 1.000000e+01 2.000000e+00
      vertex   -2.000000e+01 1.000000e+01 0.000000e+00
      vertex   -1.000000e+01 1.000000e+01 0.000000e+00
    endloop
  endfacet
  facet normal 0.000000e+00 1.000000e+00 0.000000e+00
    outer loop
      vertex   -1.250000e+01 2.000000e+01 2.000000e+00
      vertex   -1.000000e+01 2.000000e+01 2.000000e+00
      vertex   -1.250000e+01 2.000000e+01 2.980232e-08
    endloop
  endfacet
  facet normal -0.000000e+00 1.000000e+00 0.000000e+00
    outer loop
      vertex   -1.250000e+01 2.000000e+01 2.980232e-08
      vertex   -1.000000e+01 2.000000e+01 2.000000e+00
      vertex   -1.000000e+01 2.000000e+01 0.000000e+00
    endloop
  endfacet
  facet normal -1.000000e+00 0.000000e+00 0.000000e+00
    outer loop
      vertex   -7.000000e+01 1.000000e+01 0.000000e+00
      vertex   -7.000000e+01 1.000000e+01 2.000000e+00
      vertex   -7.000000e+01 2.000000e+01 0.000000e+00
    endloop
  endfacet
  facet normal -1.000000e+00 0.000000e+00 0.000000e+00
    outer loop
      vertex   -7.000000e+01 2.000000e+01 0.000000e+00
      vertex   -7.000000e+01 1.000000e+01 2.000000e+00
      vertex   -7.000000e+01 2.000000e+01 2.000000e+00
    endloop
  endfacet
  facet normal 1.000000e+00 0.000000e+00 -0.000000e+00
    outer loop
      vertex   -1.000000e+01 2.000000e+01 0.000000e+00
      vertex   -1.000000e+01 2.000000e+01 2.000000e+00
      vertex   -1.000000e+01 1.000000e+01 0.000000e+00
    endloop
  endfacet
  facet normal 1.000000e+00 0.000000e+00 -0.000000e+00
    outer loop
      vertex   -1.000000e+01 1.000000e+01 0.000000e+00
      vertex   -1.000000e+01 2.000000e+01 2.000000e+00
      vertex   -1.000000e+01 1.000000e+01 2.000000e+00
    endloop
  endfacet
  facet normal -1.000000e+00 0.000000e+00 0.000000e+00
    outer loop
      vertex   -2.000000e+01 4.250000e+01 0.000000e+00
      vertex   -2.000000e+01 4.250000e+01 2.000000e+00
      vertex   -2.000000e+01 4.500000e+01 0.000000e+00
    endloop
  endfacet
  facet normal -1.000000e+00 0.000000e+00 0.000000e+00
    outer loop
      vertex   -2.000000e+01 4.500000e+01 0.000000e+00
      vertex   -2.000000e+01 4.250000e+01 2.000000e+00
      vertex   -2.000000e+01 4.500000e+01 2.000000e+00
    endloop
  endfacet
  facet normal -1.000000e+00 -0.000000e+00 -0.000000e+00
    outer loop
      vertex   -2.000000e+01 3.750000e+01 2.000000e+00
      vertex   -2.000000e+01 3.750000e+01 0.000000e+00
      vertex   -2.000000e+01 3.500000e+01 2.000000e+00
    endloop
  endfacet
  facet normal -1.000000e+00 -0.000000e+00 -0.000000e+00
    outer loop
      vertex   -2.000000e+01 3.500000e+01 2.000000e+00
      vertex   -2.000000e+01 3.750000e+01 0.000000e+00
      vertex   -2.000000e+01 3.500000e+01 0.000000e+00
    endloop
  endfacet
  facet normal 0.000000e+00 -1.000000e+00 -0.000000e+00
    outer loop
      vertex   -1.750000e+01 3.500000e+01 2.000000e+00
      vertex   -2.000000e+01 3.500000e+01 2.000000e+00
      vertex   -1.750000e+01 3.500000e+01 2.980232e-08
    endloop
  endfacet
  facet normal -0.000000e+00 -1.000000e+00 -0.000000e+00
    outer loop
      vertex   -1.750000e+01 3.500000e+01 2.980232e-08
      vertex   -2.000000e+01 3.500000e+01 2.000000e+00
      vertex   -2.000000e+01 3.500000e+01 0.000000e+00
    endloop
  endfacet
  facet normal 0.000000e+00 1.000000e+00 0.000000e+00
    outer loop
      vertex   -1.250000e+01 4.500000e+01 2.000000e+00
      vertex   -1.000000e+01 4.500000e+01 2.000000e+00
      vertex   -1.250000e+01 4.500000e+01 2.980232e-08
    endloop
  endfacet
  facet normal -0.000000e+00 1.000000e+00 0.000000e+00
    outer loop
      vertex   -1.250000e+01 4.500000e+01 2.980232e-08
      vertex   -1.000000e+01 4.500000e+01 2.000000e+00
      vertex   -1.000000e+01 4.500000e+01 0.000000e+00
    endloop
  endfacet
  facet normal -0.000000e+00 1.000000e+00 0.000000e+00
    outer loop
      vertex   -3.500000e+01 4.250000e+01 0.000000e+00
      vertex   -3.500000e+01 4.250000e+01 2.000000e+00
      vertex   -2.000000e+01 4.250000e+01 0.000000e+00
    endloop
  endfacet
  facet normal 0.000000e+00 1.000000e+00 -0.000000e+00
    outer loop
      vertex   -2.000000e+01 4.250000e+01 0.000000e+00
      vertex   -3.500000e+01 4.250000e+01 2.000000e+00
      vertex   -2.000000e+01 4.250000e+01 2.000000e+00
    endloop
  endfacet
  facet normal -1.000000e+00 0.000000e+00 0.000000e+00
    outer loop
      vertex   -7.000000e+01 3.500000e+01 0.000000e+00
      vertex   -7.000000e+01 3.500000e+01 2.000000e+00
      vertex   -7.000000e+01 4.500000e+01 0.000000e+00
    endloop
  endfacet
  facet normal -1.000000e+00 0.000000e+00 0.000000e+00
    outer loop
      vertex   -7.000000e+01 4.500000e+01 0.000000e+00
      vertex   -7.000000e+01 3.500000e+01 2.000000e+00
      vertex   -7.000000e+01 4.500000e+01 2.000000e+00
    endloop
  endfacet
  facet normal 1.000000e+00 0.000000e+00 -0.000000e+00
    outer loop
      vertex   -1.000000e+01 4.500000e+01 0.000000e+00
      vertex   -1.000000e+01 4.500000e+01 2.000000e+00
      vertex   -1.000000e+01 3.500000e+01 0.000000e+00
    endloop
  endfacet
  facet normal 1.000000e+00 0.000000e+00 -0.000000e+00
    outer loop
      vertex   -1.000000e+01 3.500000e+01 0.000000e+00
      vertex   -1.000000e+01 4.500000e+01 2.000000e+00
      vertex   -1.000000e+01 3.500000e+01 2.000000e+00
    endloop
  endfacet
  facet normal 0.000000e+00 -1.000000e+00 0.000000e+00
    outer loop
      vertex   -3.750000e+01 6.000000e+01 2.000000e+00
      vertex   -3.750000e+01 6.000000e+01 2.980232e-08
      vertex   -3.500000e+01 6.000000e+01 2.000000e+00
    endloop
  endfacet
  facet normal 0.000000e+00 -1.000000e+00 -0.000000e+00
    outer loop
      vertex   -3.500000e+01 6.000000e+01 2.000000e+00
      vertex   -3.750000e+01 6.000000e+01 2.980232e-08
      vertex   -3.500000e+01 6.000000e+01 0.000000e+00
    endloop
  endfacet
  facet normal 0.000000e+00 -1.000000e+00 -0.000000e+00
    outer loop
      vertex   -4.250000e+01 6.000000e+01 2.000000e+00
      vertex   -4.500000e+01 6.000000e+01 2.000000e+00
      vertex   -4.250000e+01 6.000000e+01 2.980232e-08
    endloop
  endfacet
  facet normal -0.000000e+00 -1.000000e+00 -0.000000e+00
    outer loop
      vertex   -4.250000e+01 6.000000e+01 2.980232e-08
      vertex   -4.500000e+01 6.000000e+01 2.000000e+00
      vertex   -4.500000e+01 6.000000e+01 0.000000e+00
    endloop
  endfacet
  facet normal -1.000000e+00 0.000000e+00 -0.000000e+00
    outer loop
      vertex   -4.500000e+01 6.781136e+01 2.000000e+00
      vertex   -4.500000e+01 7.000000e+01 2.000000e+00
      vertex   -4.500000e+01 6.781136e+01 2.980232e-08
    endloop
  endfacet
  facet normal -1.000000e+00 0.000000e+00 0.000000e+00
    outer loop
      vertex   -4.500000e+01 6.781136e+01 2.980232e-08
      vertex   -4.500000e+01 7.000000e+01 2.000000e+00
      vertex   -4.500000e+01 7.000000e+01 0.000000e+00
    endloop
  endfacet
  facet normal 0.000000e+00 1.000000e+00 0.000000e+00
    outer loop
      vertex   -3.500000e+01 7.000000e+01 2.000000e+00
      vertex   -3.500000e+01 7.000000e+01 0.000000e+00
      vertex   -4.500000e+01 7.000000e+01 2.000000e+00
    endloop
  endfacet
  facet normal 0.000000e+00 1.000000e+00 0.000000e+00
    outer loop
      vertex   -4.500000e+01 7.000000e+01 2.000000e+00
      vertex   -3.500000e+01 7.000000e+01 0.000000e+00
      vertex   -4.500000e+01 7.000000e+01 0.000000e+00
    endloop
  endfacet
  facet normal 1.000000e+00 0.000000e+00 0.000000e+00
    outer loop
      vertex   -3.500000e+01 6.281136e+01 2.000000e+00
      vertex   -3.500000e+01 6.000000e+01 2.000000e+00
      vertex   -3.500000e+01 6.281136e+01 2.980232e-08
    endloop
  endfacet
  facet normal 1.000000e+00 0.000000e+00 0.000000e+00
    outer loop
      vertex   -3.500000e+01 6.281136e+01 2.980232e-08
      vertex   -3.500000e+01 6.000000e+01 2.000000e+00
      vertex   -3.500000e+01 6.000000e+01 0.000000e+00
    endloop
  endfacet
endsolid
